<svg width="14" height="15" viewBox="0 0 14 15" fill="none" xmlns="http://www.w3.org/2000/svg">
<path d="M12.25 7.5C12.25 10.3995 9.8995 12.75 7 12.75C6.30167 12.75 5.63518 12.6137 5.0257 12.3661C4.90906 12.3188 4.85073 12.2951 4.80359 12.2845C4.75747 12.2742 4.72334 12.2704 4.67608 12.2704C4.62776 12.2704 4.57513 12.2791 4.46988 12.2967L2.39444 12.6426C2.17711 12.6788 2.06844 12.6969 1.98986 12.6632C1.92108 12.6337 1.86628 12.5789 1.83678 12.5101C1.80307 12.4316 1.82118 12.3229 1.85741 12.1056L2.20331 10.0301C2.22086 9.92487 2.22963 9.87224 2.22962 9.82392C2.22961 9.77666 2.22583 9.74253 2.2155 9.69641C2.20493 9.64927 2.18124 9.59094 2.13387 9.4743C1.88635 8.86482 1.75 8.19833 1.75 7.5C1.75 4.60051 4.10051 2.25 7 2.25C9.8995 2.25 12.25 4.60051 12.25 7.5Z" fill="#C6C6C6"/>
<circle cx="5.03125" cy="7.71875" r="0.65625" fill="white"/>
<circle cx="7.21875" cy="7.71875" r="0.65625" fill="white"/>
<circle cx="9.40625" cy="7.71875" r="0.65625" fill="white"/>
</svg>
