<svg width="29" height="26" viewBox="0 0 29 26" fill="none" xmlns="http://www.w3.org/2000/svg">
<g id="Group 26092493">
<g id="Icon">
<path d="M4.57812 19.9704H19.4042C20.0921 19.9704 20.7609 19.754 21.3105 19.3523L25.1485 16.5522C26.1064 15.8537 27.4471 15.9464 28.2939 16.7701C29.2343 17.6849 29.2343 19.1668 28.2939 20.0801L25.0008 23.2835C24.1143 24.1458 22.9833 24.7346 21.7537 24.9741L17.0992 25.8796C16.1763 26.0589 15.2247 26.0372 14.3113 25.8147L10.1016 24.7917C9.598 24.6681 9.08171 24.6063 8.56225 24.6063H4.57812" fill="url(#paint0_linear_736_3700)"/>
<path d="M4.57812 19.9704L18.0571 19.9703C19.3868 19.9703 20.4638 18.9226 20.4638 17.6291V17.1609C20.4638 16.0869 19.7124 15.1505 18.6417 14.8909L15.0007 14.0054C14.4082 13.8617 13.8013 13.7891 13.1913 13.7891C11.7187 13.7891 9.05312 15.0083 9.05312 15.0083L4.57812 16.8797" fill="url(#paint1_linear_736_3700)"/>
</g>
<rect id="Rectangle 6547" y="15.3164" width="4.57895" height="10.6842" rx="1.52632" fill="#D77114"/>
<path id="Icon_2" fill-rule="evenodd" clip-rule="evenodd" d="M21.4378 2.31833C20.5269 0.412182 18.4267 -0.597648 16.3843 0.377039C14.3419 1.35173 13.4717 3.66321 14.3268 5.69236C14.8553 6.94643 16.3695 9.38174 17.4491 11.0592C17.848 11.679 18.0475 11.9889 18.3388 12.1702C18.5887 12.3257 18.9015 12.4095 19.1957 12.3998C19.5386 12.3885 19.8663 12.2198 20.5217 11.8825C22.2954 10.9696 24.8244 9.61763 25.9091 8.79582C27.6642 7.46608 28.099 5.02193 26.785 3.16389C25.4709 1.30585 23.1798 1.12302 21.4378 2.31833Z" fill="url(#paint2_linear_736_3700)"/>
</g>
<defs>
<linearGradient id="paint0_linear_736_3700" x1="4" y1="19" x2="29.5" y2="18" gradientUnits="userSpaceOnUse">
<stop stop-color="#FFCEAA"/>
<stop offset="1" stop-color="#FF9432"/>
</linearGradient>
<linearGradient id="paint1_linear_736_3700" x1="4" y1="19" x2="29.5" y2="18" gradientUnits="userSpaceOnUse">
<stop stop-color="#FFCEAA"/>
<stop offset="1" stop-color="#FF9432"/>
</linearGradient>
<linearGradient id="paint2_linear_736_3700" x1="20.775" y1="0" x2="20.775" y2="12.4006" gradientUnits="userSpaceOnUse">
<stop stop-color="#FF9999"/>
<stop offset="1" stop-color="#EF3B3B"/>
</linearGradient>
</defs>
</svg>
