<?xml version="1.0" encoding="UTF-8" standalone="no"?>
<svg
   xmlns:dc="http://purl.org/dc/elements/1.1/"
   xmlns:cc="http://creativecommons.org/ns#"
   xmlns:rdf="http://www.w3.org/1999/02/22-rdf-syntax-ns#"
   xmlns:svg="http://www.w3.org/2000/svg"
   xmlns="http://www.w3.org/2000/svg"
   viewBox="0 0 1333.3333 1333.3333"
   height="1333.3333"
   width="1333.3333"
   xml:space="preserve"
   id="svg2"
   version="1.1"><metadata
     id="metadata8"><rdf:RDF><cc:Work
         rdf:about=""><dc:format>image/svg+xml</dc:format><dc:type
           rdf:resource="http://purl.org/dc/dcmitype/StillImage" /></cc:Work></rdf:RDF></metadata><defs
     id="defs6"><clipPath
       id="clipPath18"
       clipPathUnits="userSpaceOnUse"><path
         id="path16"
         d="M 0,1000 H 1000 V 0 H 0 Z" /></clipPath></defs><g
     transform="matrix(1.3333333,0,0,-1.3333333,0,1333.3333)"
     id="g10"><g
       id="g12"><g
         clip-path="url(#clipPath18)"
         id="g14"><g
           transform="translate(264.4922,313.5391)"
           id="g20"><path
             id="path22"
             style="fill:#f29243;fill-opacity:1;fill-rule:nonzero;stroke:none"
             d="m 0,0 c -1.062,1.008 -2.547,1.804 -4.458,2.389 -1.911,0.582 -4.355,0.876 -7.325,0.876 h -110.669 c -2.973,0 -5.414,-0.294 -7.325,-0.876 -1.91,-0.585 -3.398,-1.381 -4.458,-2.389 -1.063,-1.01 -1.779,-2.177 -2.15,-3.503 -0.373,-1.329 -0.557,-2.787 -0.557,-4.379 0,-1.274 0.184,-2.575 0.557,-3.901 0.371,-1.329 1.087,-2.496 2.15,-3.503 1.06,-1.011 2.548,-1.832 4.458,-2.469 1.911,-0.637 4.352,-0.955 7.325,-0.955 h 42.516 v -20.382 c 0,-2.76 0.343,-5.041 1.035,-6.847 0.689,-1.804 1.645,-3.238 2.866,-4.299 1.22,-1.061 2.6,-1.805 4.14,-2.23 1.538,-0.423 3.158,-0.636 4.857,-0.636 1.697,0 3.317,0.213 4.857,0.636 1.537,0.425 2.891,1.169 4.06,2.23 1.167,1.061 2.122,2.495 2.867,4.299 0.741,1.806 1.114,4.087 1.114,6.847 v 20.382 h 42.357 c 2.97,0 5.414,0.318 7.325,0.955 1.911,0.637 3.396,1.458 4.458,2.469 1.06,1.007 1.777,2.174 2.15,3.503 0.371,1.326 0.557,2.627 0.557,3.901 0,1.592 -0.186,3.05 -0.557,4.379 C 1.777,-2.177 1.06,-1.01 0,0" /></g><g
           transform="translate(141.0054,335.5137)"
           id="g24"><path
             id="path26"
             style="fill:#f29243;fill-opacity:1;fill-rule:nonzero;stroke:none"
             d="m 0,0 c 0.9,-1.114 2.202,-1.99 3.901,-2.627 1.697,-0.638 4.033,-0.956 7.007,-0.956 h 91.879 c 2.651,0 4.776,0.318 6.369,0.956 1.592,0.637 2.811,1.485 3.662,2.547 0.849,1.06 1.406,2.255 1.672,3.583 0.264,1.326 0.398,2.68 0.398,4.06 0,1.061 -0.134,2.254 -0.398,3.583 -0.266,1.327 -0.823,2.521 -1.672,3.583 -0.851,1.06 -2.07,1.963 -3.662,2.708 -1.593,0.741 -3.718,1.114 -6.369,1.114 H 23.806 v 19.267 h 77.388 c 2.652,0 4.777,0.371 6.369,1.115 1.593,0.742 2.812,1.645 3.663,2.707 0.848,1.06 1.406,2.229 1.672,3.504 0.264,1.273 0.398,2.493 0.398,3.662 0,1.378 -0.134,2.731 -0.398,4.06 -0.266,1.326 -0.824,2.521 -1.672,3.583 -0.851,1.06 -2.07,1.91 -3.663,2.548 -1.592,0.637 -3.717,0.955 -6.369,0.955 H 10.908 C 7.509,59.952 4.511,58.97 1.911,57.006 -0.692,55.041 -1.991,51.405 -1.991,46.099 V 8.359 c 0,-1.591 0.105,-3.104 0.319,-4.538 C -1.46,2.389 -0.903,1.114 0,0" /></g><g
           transform="translate(368.4722,281.0547)"
           id="g28"><path
             id="path30"
             style="fill:#f29243;fill-opacity:1;fill-rule:nonzero;stroke:none"
             d="m 0,0 c -1.062,1.011 -2.547,1.807 -4.458,2.389 -1.911,0.582 -4.355,0.876 -7.325,0.876 h -19.586 v 30.573 h 13.694 c 2.653,0 4.777,0.318 6.369,0.955 1.593,0.638 2.812,1.485 3.663,2.548 0.849,1.06 1.406,2.255 1.672,3.583 0.263,1.326 0.398,2.68 0.398,4.06 0,1.06 -0.135,2.254 -0.398,3.583 -0.266,1.327 -0.823,2.521 -1.672,3.583 -0.851,1.06 -2.07,1.963 -3.663,2.707 -1.592,0.742 -3.716,1.115 -6.369,1.115 h -41.401 v 44.586 c 0,2.652 -0.373,4.881 -1.115,6.687 -0.744,1.805 -1.699,3.237 -2.866,4.3 -1.17,1.059 -2.523,1.804 -4.061,2.229 -1.54,0.423 -3.159,0.637 -4.856,0.637 -3.399,0 -6.397,-0.982 -8.997,-2.946 -2.603,-1.965 -3.901,-5.601 -3.901,-10.907 V 45.78 c 0,-1.592 0.104,-3.104 0.318,-4.538 0.212,-1.432 0.769,-2.707 1.672,-3.821 0.901,-1.115 2.202,-1.99 3.902,-2.628 1.696,-0.637 4.033,-0.955 7.006,-0.955 h 14.808 V 3.265 h -17.993 c -2.973,0 -5.414,-0.294 -7.325,-0.876 -1.911,-0.582 -3.398,-1.378 -4.458,-2.389 -1.063,-1.007 -1.779,-2.174 -2.15,-3.503 -0.373,-1.326 -0.557,-2.786 -0.557,-4.379 0,-1.273 0.184,-2.572 0.557,-3.901 0.371,-1.326 1.087,-2.493 2.15,-3.503 1.06,-1.008 2.547,-1.831 4.458,-2.468 1.911,-0.638 4.352,-0.956 7.325,-0.956 h 63.376 c 2.97,0 5.414,0.318 7.325,0.956 1.911,0.637 3.396,1.46 4.458,2.468 1.06,1.01 1.777,2.177 2.15,3.503 0.371,1.329 0.557,2.628 0.557,3.901 0,1.593 -0.186,3.053 -0.557,4.379 C 1.777,-2.174 1.06,-1.007 0,0" /></g><g
           transform="translate(404.9375,394.1924)"
           id="g32"><path
             id="path34"
             style="fill:#f29243;fill-opacity:1;fill-rule:nonzero;stroke:none"
             d="m 0,0 c -1.169,1.06 -2.523,1.804 -4.061,2.229 -1.54,0.422 -3.16,0.637 -4.856,0.637 -3.399,0 -6.397,-0.983 -8.997,-2.946 -2.603,-1.966 -3.901,-5.601 -3.901,-10.907 v -108.758 c 0,-2.76 0.343,-5.041 1.035,-6.848 0.689,-1.803 1.644,-3.237 2.866,-4.299 1.219,-1.06 2.6,-1.804 4.14,-2.229 1.538,-0.423 3.157,-0.637 4.857,-0.637 1.696,0 3.316,0.214 4.856,0.637 1.538,0.425 2.892,1.169 4.061,2.229 1.167,1.062 2.122,2.496 2.866,4.299 0.741,1.807 1.114,4.088 1.114,6.848 V -10.987 C 3.98,-8.336 3.607,-6.106 2.866,-4.3 2.122,-2.496 1.167,-1.062 0,0" /></g><g
           transform="translate(557.8027,394.1924)"
           id="g36"><path
             id="path38"
             style="fill:#f29243;fill-opacity:1;fill-rule:nonzero;stroke:none"
             d="m 0,0 c -1.17,1.06 -2.523,1.804 -4.061,2.229 -1.54,0.422 -3.16,0.637 -4.856,0.637 -3.399,0 -6.397,-0.983 -8.997,-2.946 -2.603,-1.966 -3.901,-5.601 -3.901,-10.907 v -108.758 c 0,-2.76 0.343,-5.041 1.035,-6.848 0.689,-1.803 1.644,-3.237 2.866,-4.299 1.219,-1.06 2.6,-1.804 4.14,-2.229 1.538,-0.423 3.158,-0.637 4.857,-0.637 1.696,0 3.316,0.214 4.856,0.637 1.538,0.425 2.891,1.169 4.061,2.229 1.167,1.062 2.122,2.496 2.866,4.299 0.741,1.807 1.114,4.088 1.114,6.848 V -10.987 C 3.98,-8.336 3.607,-6.106 2.866,-4.3 2.122,-2.496 1.167,-1.062 0,0" /></g><path
           id="path40"
           style="fill:#f29243;fill-opacity:1;fill-rule:nonzero;stroke:none"
           d="m 482.007,286.39 h -20.063 v 44.108 h 20.063 z m 21.417,106.21 c -1.114,1.059 -2.389,1.803 -3.821,2.229 -1.434,0.423 -3.001,0.637 -4.698,0.637 -3.399,0 -6.397,-0.983 -8.997,-2.946 -2.602,-1.965 -3.901,-5.601 -3.901,-10.908 v -29.139 h -20.064 v 29.139 c 0,2.653 -0.373,4.882 -1.114,6.688 -0.744,1.804 -1.7,3.237 -2.867,4.3 -1.169,1.059 -2.523,1.803 -4.06,2.229 -1.54,0.423 -3.16,0.637 -4.857,0.637 -3.399,0 -6.265,-0.983 -8.598,-2.946 -2.337,-1.965 -3.504,-5.601 -3.504,-10.908 v -106.05 c 0,-1.593 0.105,-3.051 0.319,-4.379 0.211,-1.327 0.769,-2.494 1.672,-3.503 0.9,-1.008 2.202,-1.804 3.901,-2.389 1.697,-0.582 4.033,-0.876 7.006,-0.876 h 44.268 c 2.971,0 5.307,0.294 7.006,0.876 1.697,0.585 2.998,1.381 3.902,2.389 0.9,1.009 1.458,2.176 1.671,3.503 0.211,1.328 0.318,2.786 0.318,4.379 v 106.05 c 0,2.653 -0.318,4.882 -0.954,6.688 -0.638,1.804 -1.513,3.237 -2.628,4.3" /><g
           transform="translate(650.6367,282.9658)"
           id="g42"><path
             id="path44"
             style="fill:#f29243;fill-opacity:1;fill-rule:nonzero;stroke:none"
             d="m 0,0 c -1.062,1.011 -2.548,1.831 -4.459,2.469 -1.91,0.636 -4.354,0.955 -7.324,0.955 h -24.841 v 32.484 h 20.859 2.548 c 0.637,0.105 1.247,0.184 1.831,0.238 0.582,0.053 1.14,0.185 1.672,0.399 0.212,0 0.638,0.104 1.275,0.318 0.636,0.211 1.218,0.45 1.752,0.717 0.529,0.264 1.059,0.557 1.591,0.875 l 0.637,0.479 c 0.742,0.741 1.379,1.537 1.911,2.387 0.212,0.32 0.423,0.797 0.637,1.434 0.212,0.637 0.318,1.008 0.318,1.114 0.105,0.53 0.185,1.008 0.239,1.434 0.052,0.423 0.08,0.9 0.08,1.432 v 0.956 c 0,0.211 -0.028,0.343 -0.08,0.398 -0.054,0.053 -0.08,0.184 -0.08,0.398 v 0.955 l -0.477,1.593 c -0.214,0.637 -0.425,1.167 -0.637,1.593 l -0.159,0.318 c -0.532,0.955 -1.222,1.697 -2.07,2.229 l -1.115,0.797 c -0.532,0.211 -1.089,0.423 -1.671,0.636 -0.585,0.211 -1.302,0.423 -2.151,0.637 -0.106,0.105 -0.318,0.159 -0.637,0.159 -0.532,0.212 -1.114,0.319 -1.751,0.319 -0.637,0 -1.274,0.052 -1.911,0.159 h -1.752 -20.859 v 32.643 h 21.656 c 2.971,0 5.413,0.319 7.324,0.955 1.912,0.638 3.397,1.458 4.459,2.469 1.06,1.008 1.777,2.175 2.15,3.503 0.371,1.326 0.557,2.628 0.557,3.902 0,1.592 -0.186,3.05 -0.557,4.378 -0.373,1.327 -1.09,2.494 -2.15,3.503 -1.062,1.008 -2.547,1.804 -4.459,2.389 -1.911,0.582 -4.353,0.876 -7.324,0.876 h -34.554 c -2.973,0 -5.31,-0.346 -7.006,-1.035 -1.701,-0.692 -3.001,-1.619 -3.902,-2.786 -0.903,-1.17 -1.461,-2.469 -1.672,-3.902 -0.213,-1.433 -0.318,-2.946 -0.318,-4.538 V -7.404 c 0,-1.593 0.105,-3.051 0.318,-4.379 0.211,-1.326 0.769,-2.493 1.672,-3.503 0.901,-1.008 2.201,-1.804 3.902,-2.389 1.696,-0.582 4.033,-0.876 7.006,-0.876 h 37.739 c 2.97,0 5.414,0.294 7.324,0.876 1.911,0.585 3.397,1.381 4.459,2.389 1.06,1.01 1.776,2.177 2.149,3.503 0.372,1.328 0.558,2.786 0.558,4.379 0,1.273 -0.186,2.575 -0.558,3.901 C 1.776,-2.175 1.06,-1.008 0,0" /></g><g
           transform="translate(723.248,341.5645)"
           id="g46"><path
             id="path48"
             style="fill:#f29243;fill-opacity:1;fill-rule:nonzero;stroke:none"
             d="m 0,0 c -1.062,1.008 -2.548,1.831 -4.459,2.469 -1.91,0.636 -4.354,0.955 -7.324,0.955 h -10.032 v 38.217 c 0,2.651 -0.373,4.88 -1.115,6.687 -0.744,1.804 -1.699,3.237 -2.866,4.3 -1.17,1.06 -2.523,1.804 -4.06,2.228 -1.54,0.423 -3.161,0.638 -4.858,0.638 -3.398,0 -6.396,-0.983 -8.996,-2.946 -2.603,-1.966 -3.901,-5.601 -3.901,-10.907 V -67.117 c 0,-2.76 0.342,-5.041 1.035,-6.848 0.688,-1.804 1.644,-3.237 2.866,-4.299 1.219,-1.06 2.6,-1.804 4.14,-2.229 1.538,-0.423 3.157,-0.637 4.856,-0.637 1.697,0 3.318,0.214 4.858,0.637 1.537,0.425 2.89,1.169 4.06,2.229 1.167,1.062 2.122,2.495 2.866,4.299 0.742,1.807 1.115,4.088 1.115,6.848 v 48.566 h 10.032 c 2.97,0 5.414,0.291 7.324,0.876 1.911,0.582 3.397,1.378 4.459,2.389 1.06,1.008 1.776,2.174 2.149,3.503 0.372,1.326 0.558,2.786 0.558,4.379 0,1.273 -0.186,2.572 -0.558,3.901 C 1.776,-2.177 1.06,-1.01 0,0" /></g><g
           transform="translate(839.251,308.3643)"
           id="g50"><path
             id="path52"
             style="fill:#f29243;fill-opacity:1;fill-rule:nonzero;stroke:none"
             d="m 0,0 c 1.219,-1.062 2.6,-1.807 4.14,-2.229 1.538,-0.426 3.157,-0.637 4.857,-0.637 1.696,0 3.316,0.211 4.857,0.637 1.537,0.422 2.89,1.167 4.06,2.229 1.167,1.06 2.122,2.493 2.866,4.299 0.741,1.804 1.115,4.086 1.115,6.847 v 63.695 c 0,2.651 -0.374,4.881 -1.115,6.687 -0.744,1.804 -1.699,3.238 -2.866,4.3 -1.17,1.06 -2.523,1.804 -4.06,2.229 -1.541,0.422 -3.161,0.637 -4.857,0.637 C 5.598,88.694 2.6,87.711 0,85.748 -2.603,83.782 -3.901,80.147 -3.901,74.841 V 11.146 c 0,-2.761 0.342,-5.043 1.035,-6.847 C -2.177,2.493 -1.222,1.06 0,0" /></g><path
           id="path54"
           style="fill:#f29243;fill-opacity:1;fill-rule:nonzero;stroke:none"
           d="m 763.216,374.128 h 16.879 v -33.28 H 763.216 Z M 750.317,319.67 h 41.561 c 2.016,0 3.874,0.238 5.573,0.717 1.697,0.477 3.185,1.246 4.459,2.308 1.274,1.06 2.254,2.468 2.945,4.22 0.69,1.752 1.036,3.953 1.036,6.608 v 50.637 c 0,1.592 -0.107,3.05 -0.319,4.379 -0.214,1.326 -0.771,2.493 -1.672,3.503 -0.903,1.008 -2.204,1.804 -3.901,2.389 -1.699,0.582 -4.035,0.876 -7.006,0.876 H 751.91 c -4.565,0 -8.121,-0.824 -10.669,-2.468 -2.548,-1.648 -3.821,-4.912 -3.821,-9.793 v -52.23 c 0,-1.592 0.104,-3.052 0.318,-4.379 0.211,-1.329 0.769,-2.496 1.672,-3.503 0.901,-1.01 2.202,-1.806 3.902,-2.388 1.696,-0.585 4.033,-0.876 7.005,-0.876" /><g
           transform="translate(865.6836,273.7305)"
           id="g56"><path
             id="path58"
             style="fill:#f29243;fill-opacity:1;fill-rule:nonzero;stroke:none"
             d="m 0,0 c -0.373,1.328 -1.09,2.495 -2.149,3.503 -1.063,1.01 -2.548,1.831 -4.459,2.468 -1.911,0.637 -4.354,0.956 -7.325,0.956 h -85.35 v 15.286 c 0,2.652 -0.373,4.882 -1.114,6.688 -0.745,1.804 -1.7,3.237 -2.867,4.299 -1.17,1.061 -2.523,1.804 -4.06,2.23 -1.54,0.423 -3.16,0.636 -4.857,0.636 -3.399,0 -6.397,-0.982 -8.997,-2.945 -2.602,-1.966 -3.901,-5.6 -3.901,-10.908 V -3.901 c 0,-1.593 0.104,-3.051 0.318,-4.379 0.212,-1.326 0.769,-2.493 1.672,-3.503 0.901,-1.008 2.202,-1.805 3.901,-2.389 1.698,-0.582 4.034,-0.876 7.007,-0.876 h 98.248 c 2.971,0 5.414,0.294 7.325,0.876 1.911,0.584 3.396,1.381 4.459,2.389 1.059,1.01 1.776,2.177 2.149,3.503 0.371,1.328 0.558,2.786 0.558,4.379 C 0.558,-2.628 0.371,-1.326 0,0" /></g><g
           transform="translate(216.7437,181.751)"
           id="g60"><path
             id="path62"
             style="fill:#a1a2a2;fill-opacity:1;fill-rule:nonzero;stroke:none"
             d="m 0,0 h -8.12 v 3.757 c 0,0.355 -0.121,0.614 -0.363,0.775 -0.243,0.161 -0.526,0.242 -0.849,0.242 -0.323,0 -0.606,-0.081 -0.848,-0.242 -0.243,-0.161 -0.364,-0.42 -0.364,-0.775 V 0 h -8.12 c -0.291,0 -0.505,-0.102 -0.643,-0.304 -0.137,-0.202 -0.206,-0.44 -0.206,-0.715 0,-0.274 0.069,-0.517 0.206,-0.727 0.138,-0.21 0.352,-0.315 0.643,-0.315 H 0 c 0.291,0 0.505,0.105 0.643,0.315 0.137,0.21 0.206,0.453 0.206,0.727 0,0.275 -0.069,0.513 -0.206,0.715 C 0.505,-0.102 0.291,0 0,0" /></g><g
           transform="translate(199.8369,185.8838)"
           id="g64"><path
             id="path66"
             style="fill:#a1a2a2;fill-opacity:1;fill-rule:nonzero;stroke:none"
             d="M 0,0 C 0.267,-0.105 0.529,-0.094 0.788,0.036 1.563,0.439 2.294,0.84 2.981,1.235 3.668,1.632 4.375,2.039 5.103,2.46 5.926,2.961 6.524,3.401 6.896,3.781 7.268,4.16 7.494,4.512 7.575,4.835 H 7.599 C 7.68,4.545 7.902,4.209 8.266,3.829 c 0.363,-0.38 0.957,-0.82 1.781,-1.32 0.727,-0.421 1.434,-0.829 2.121,-1.225 0.687,-0.396 1.418,-0.796 2.194,-1.2 0.274,-0.129 0.541,-0.142 0.8,-0.036 0.258,0.105 0.46,0.287 0.606,0.546 0.129,0.225 0.185,0.484 0.17,0.775 C 15.921,1.66 15.775,1.878 15.501,2.023 14.693,2.443 13.954,2.844 13.283,3.224 12.612,3.603 11.897,4.027 11.138,4.496 10.702,4.771 10.334,5.041 10.035,5.308 9.736,5.574 9.494,5.861 9.308,6.169 9.122,6.476 8.993,6.814 8.92,7.187 8.847,7.558 8.811,7.994 8.811,8.495 v 0.631 h 5.624 c 0.306,0 0.528,0.101 0.666,0.303 0.137,0.202 0.206,0.44 0.206,0.715 0,0.291 -0.069,0.537 -0.206,0.739 -0.138,0.202 -0.36,0.303 -0.666,0.303 H 0.715 c -0.307,0 -0.529,-0.101 -0.667,-0.303 -0.137,-0.202 -0.206,-0.448 -0.206,-0.739 0,-0.275 0.069,-0.513 0.206,-0.715 C 0.186,9.227 0.408,9.126 0.715,9.126 H 6.338 V 8.495 C 6.338,7.994 6.302,7.558 6.229,7.187 6.157,6.814 6.027,6.476 5.842,6.169 5.656,5.861 5.413,5.574 5.114,5.308 4.815,5.041 4.448,4.771 4.012,4.496 3.252,4.027 2.533,3.603 1.854,3.224 1.176,2.844 0.432,2.436 -0.375,1.999 -0.651,1.87 -0.792,1.66 -0.8,1.369 -0.808,1.078 -0.748,0.812 -0.618,0.569 -0.473,0.294 -0.267,0.104 0,0" /></g><g
           transform="translate(236.3291,198.5244)"
           id="g68"><path
             id="path70"
             style="fill:#a1a2a2;fill-opacity:1;fill-rule:nonzero;stroke:none"
             d="m 0,0 c -0.307,0 -0.586,-0.081 -0.836,-0.242 -0.251,-0.162 -0.376,-0.421 -0.376,-0.777 v -18.906 c 0,-0.355 0.125,-0.614 0.376,-0.775 0.25,-0.162 0.529,-0.243 0.836,-0.243 0.323,0 0.61,0.081 0.86,0.243 0.251,0.161 0.376,0.42 0.376,0.775 v 18.906 c 0,0.356 -0.125,0.615 -0.376,0.777 C 0.61,-0.081 0.323,0 0,0" /></g><g
           transform="translate(228.8149,196.876)"
           id="g72"><path
             id="path74"
             style="fill:#a1a2a2;fill-opacity:1;fill-rule:nonzero;stroke:none"
             d="m 0,0 h -7.369 c -0.307,0 -0.529,-0.105 -0.667,-0.315 -0.137,-0.21 -0.206,-0.46 -0.206,-0.751 0,-0.276 0.069,-0.518 0.206,-0.728 0.138,-0.21 0.36,-0.315 0.667,-0.315 h 6.303 c 0.193,0 0.327,-0.037 0.399,-0.109 0.073,-0.073 0.109,-0.198 0.109,-0.376 V -4.46 c 0,-0.518 -0.024,-0.981 -0.072,-1.394 -0.049,-0.412 -0.162,-0.799 -0.34,-1.164 -0.177,-0.363 -0.432,-0.726 -0.763,-1.09 -0.331,-0.364 -0.772,-0.76 -1.321,-1.188 -0.55,-0.429 -1.233,-0.905 -2.049,-1.43 -0.815,-0.525 -1.797,-1.135 -2.944,-1.83 -0.275,-0.178 -0.417,-0.421 -0.425,-0.727 -0.008,-0.308 0.069,-0.574 0.23,-0.8 0.162,-0.227 0.38,-0.392 0.655,-0.497 0.275,-0.106 0.549,-0.077 0.824,0.085 1.244,0.76 2.319,1.438 3.224,2.036 0.905,0.598 1.676,1.151 2.315,1.66 0.638,0.509 1.159,0.994 1.563,1.454 0.404,0.461 0.719,0.934 0.946,1.418 0.226,0.486 0.379,0.998 0.46,1.54 0.081,0.541 0.121,1.152 0.121,1.83 v 2.739 c 0,0.695 -0.133,1.172 -0.4,1.43 C 1.2,-0.13 0.711,0 0,0" /></g><g
           transform="translate(264.4463,198.5244)"
           id="g76"><path
             id="path78"
             style="fill:#a1a2a2;fill-opacity:1;fill-rule:nonzero;stroke:none"
             d="m 0,0 c -0.307,0 -0.586,-0.081 -0.836,-0.242 -0.251,-0.162 -0.376,-0.421 -0.376,-0.777 v -18.906 c 0,-0.355 0.125,-0.614 0.376,-0.775 0.25,-0.162 0.529,-0.243 0.836,-0.243 0.323,0 0.61,0.081 0.86,0.243 0.251,0.161 0.376,0.42 0.376,0.775 v 18.906 c 0,0.356 -0.125,0.615 -0.376,0.777 C 0.61,-0.081 0.323,0 0,0" /></g><g
           transform="translate(259.186,185.9922)"
           id="g80"><path
             id="path82"
             style="fill:#a1a2a2;fill-opacity:1;fill-rule:nonzero;stroke:none"
             d="m 0,0 c -0.484,0.452 -0.986,0.937 -1.502,1.455 -0.373,0.355 -0.676,0.694 -0.91,1.018 -0.234,0.323 -0.42,0.654 -0.557,0.994 -0.137,0.339 -0.235,0.702 -0.291,1.091 -0.057,0.387 -0.085,0.839 -0.085,1.357 v 1.551 h 4.121 c 0.291,0 0.505,0.105 0.642,0.315 0.137,0.21 0.207,0.452 0.207,0.727 0,0.275 -0.07,0.517 -0.207,0.727 -0.137,0.21 -0.351,0.316 -0.642,0.316 h -4.121 v 2.036 c 0,0.355 -0.121,0.613 -0.363,0.775 -0.243,0.161 -0.526,0.242 -0.849,0.242 -0.307,0 -0.586,-0.081 -0.836,-0.242 -0.251,-0.162 -0.376,-0.42 -0.376,-0.775 V 9.551 h -4.266 c -0.291,0 -0.505,-0.106 -0.642,-0.316 -0.137,-0.21 -0.206,-0.452 -0.206,-0.727 0,-0.275 0.069,-0.517 0.206,-0.727 0.137,-0.21 0.351,-0.315 0.642,-0.315 h 4.266 V 5.915 c 0,-0.518 -0.028,-0.97 -0.085,-1.357 C -5.91,4.169 -6.007,3.806 -6.145,3.467 -6.282,3.127 -6.472,2.796 -6.714,2.473 -6.957,2.149 -7.256,1.81 -7.611,1.455 -8.128,0.937 -8.637,0.44 -9.138,-0.036 c -0.501,-0.477 -1.034,-0.949 -1.6,-1.418 -0.242,-0.21 -0.36,-0.457 -0.351,-0.739 0.008,-0.284 0.109,-0.537 0.303,-0.764 0.178,-0.21 0.412,-0.352 0.703,-0.424 0.291,-0.073 0.565,-0.005 0.824,0.206 0.517,0.437 1.002,0.876 1.454,1.321 0.452,0.444 0.929,0.901 1.43,1.37 0.355,0.338 0.643,0.633 0.861,0.884 0.218,0.25 0.395,0.469 0.533,0.655 0.137,0.185 0.234,0.347 0.291,0.484 0.056,0.138 0.101,0.279 0.133,0.425 h 0.024 c 0.016,-0.13 0.057,-0.259 0.122,-0.388 0.064,-0.13 0.165,-0.283 0.303,-0.461 0.137,-0.178 0.318,-0.391 0.545,-0.642 0.226,-0.25 0.509,-0.545 0.849,-0.885 0.5,-0.484 0.961,-0.933 1.381,-1.345 0.42,-0.412 0.808,-0.772 1.164,-1.079 0.226,-0.21 0.476,-0.291 0.751,-0.242 0.274,0.049 0.509,0.17 0.703,0.363 0.194,0.194 0.311,0.441 0.351,0.739 0.041,0.299 -0.052,0.554 -0.279,0.764 C 0.937,-0.856 0.485,-0.452 0,0" /></g><g
           transform="translate(287.3032,198.5244)"
           id="g84"><path
             id="path86"
             style="fill:#a1a2a2;fill-opacity:1;fill-rule:nonzero;stroke:none"
             d="m 0,0 c -0.275,0 -0.529,-0.077 -0.764,-0.23 -0.234,-0.155 -0.351,-0.392 -0.351,-0.715 v -6.496 h -2.593 v 6.254 c 0,0.322 -0.118,0.56 -0.352,0.714 -0.234,0.154 -0.497,0.231 -0.788,0.231 -0.275,0 -0.529,-0.077 -0.763,-0.231 -0.235,-0.154 -0.352,-0.392 -0.352,-0.714 v -17.792 c 0,-0.324 0.117,-0.562 0.352,-0.715 0.234,-0.154 0.488,-0.231 0.763,-0.231 0.291,0 0.554,0.077 0.788,0.231 0.234,0.153 0.352,0.391 0.352,0.715 v 9.477 h 2.593 v -10.496 c 0,-0.322 0.117,-0.561 0.351,-0.715 0.235,-0.153 0.489,-0.23 0.764,-0.23 0.291,0 0.553,0.077 0.788,0.23 0.234,0.154 0.351,0.393 0.351,0.715 v 19.053 c 0,0.323 -0.117,0.56 -0.351,0.715 C 0.553,-0.077 0.291,0 0,0" /></g><g
           transform="translate(276.7593,185.8955)"
           id="g88"><path
             id="path90"
             style="fill:#a1a2a2;fill-opacity:1;fill-rule:nonzero;stroke:none"
             d="m 0,0 c 0,-0.323 -0.17,-0.484 -0.509,-0.484 h -3.467 c -0.339,0 -0.508,0.161 -0.508,0.484 v 8.29 c 0,0.323 0.169,0.484 0.508,0.484 h 3.467 C -0.17,8.774 0,8.613 0,8.29 Z m 0.388,10.859 h -5.26 c -0.711,0 -1.2,-0.13 -1.467,-0.387 -0.266,-0.259 -0.4,-0.736 -0.4,-1.431 v -9.792 c 0,-0.695 0.134,-1.172 0.4,-1.431 0.267,-0.258 0.756,-0.387 1.467,-0.387 h 5.26 c 0.711,0 1.199,0.129 1.466,0.387 0.267,0.259 0.4,0.736 0.4,1.431 v 9.792 c 0,0.695 -0.133,1.172 -0.4,1.431 -0.267,0.257 -0.755,0.387 -1.466,0.387" /></g><g
           transform="translate(315.4209,198.5244)"
           id="g92"><path
             id="path94"
             style="fill:#a1a2a2;fill-opacity:1;fill-rule:nonzero;stroke:none"
             d="m 0,0 c -0.275,0 -0.529,-0.077 -0.764,-0.23 -0.234,-0.155 -0.351,-0.392 -0.351,-0.715 v -19.053 c 0,-0.322 0.117,-0.561 0.351,-0.715 0.235,-0.153 0.489,-0.23 0.764,-0.23 0.291,0 0.553,0.077 0.788,0.23 0.234,0.154 0.351,0.393 0.351,0.715 v 19.053 c 0,0.323 -0.117,0.56 -0.351,0.715 C 0.553,-0.077 0.291,0 0,0" /></g><g
           transform="translate(310.0396,188.4404)"
           id="g96"><path
             id="path98"
             style="fill:#a1a2a2;fill-opacity:1;fill-rule:nonzero;stroke:none"
             d="m 0,0 h -2.714 c 0.047,0.5 0.072,1.032 0.072,1.6 0,0.567 -0.025,1.1 -0.072,1.6 H 0 Z m -5.454,-2.072 c -0.387,-0.832 -1.058,-1.248 -2.011,-1.248 -0.954,0 -1.624,0.416 -2.013,1.248 -0.387,0.832 -0.581,2.056 -0.581,3.672 0,1.616 0.194,2.839 0.581,3.672 0.389,0.832 1.059,1.249 2.013,1.249 0.953,0 1.624,-0.417 2.011,-1.249 0.388,-0.833 0.582,-2.056 0.582,-3.672 0,-1.616 -0.194,-2.84 -0.582,-3.672 M 1.115,9.842 C 0.84,9.842 0.586,9.765 0.352,9.611 0.117,9.457 0,9.219 0,8.896 v -3.66 h -3.109 c -0.183,0.613 -0.403,1.172 -0.696,1.624 -0.776,1.196 -1.996,1.793 -3.66,1.793 -1.665,0 -2.885,-0.597 -3.66,-1.793 -0.776,-1.196 -1.164,-2.949 -1.164,-5.26 0,-2.311 0.388,-4.064 1.164,-5.26 0.775,-1.196 1.995,-1.794 3.66,-1.794 1.664,0 2.884,0.598 3.66,1.794 0.293,0.453 0.513,1.011 0.696,1.624 H 0 v -6.86 c 0,-0.323 0.117,-0.561 0.352,-0.714 0.234,-0.154 0.488,-0.231 0.763,-0.231 0.275,0 0.53,0.077 0.764,0.231 0.234,0.153 0.351,0.391 0.351,0.714 V 8.896 C 2.23,9.219 2.113,9.457 1.879,9.611 1.645,9.765 1.39,9.842 1.115,9.842" /></g><g
           transform="translate(328.437,189.3379)"
           id="g100"><path
             id="path102"
             style="fill:#a1a2a2;fill-opacity:1;fill-rule:nonzero;stroke:none"
             d="m 0,0 c 0,-0.324 -0.17,-0.485 -0.509,-0.485 h -4.557 c -0.194,0 -0.328,0.036 -0.4,0.109 C -5.539,-0.304 -5.575,-0.179 -5.575,0 V 2.472 H 0 Z m 2,-2.109 c 0.266,0.258 0.399,0.735 0.399,1.43 V 7.175 C 2.399,7.529 2.274,7.788 2.024,7.95 1.773,8.111 1.494,8.192 1.187,8.192 0.88,8.192 0.606,8.111 0.363,7.95 0.121,7.788 0,7.529 0,7.175 V 4.483 h -5.575 v 2.692 c 0,0.354 -0.126,0.613 -0.376,0.775 C -6.202,8.111 -6.48,8.192 -6.787,8.192 -7.094,8.192 -7.369,8.111 -7.611,7.95 -7.854,7.788 -7.975,7.529 -7.975,7.175 v -7.854 c 0,-0.695 0.133,-1.172 0.4,-1.43 0.266,-0.259 0.755,-0.388 1.467,-0.388 h 6.641 c 0.711,0 1.2,0.129 1.467,0.388" /></g><g
           transform="translate(339.5386,193.0947)"
           id="g104"><path
             id="path106"
             style="fill:#a1a2a2;fill-opacity:1;fill-rule:nonzero;stroke:none"
             d="m 0,0 h -2.667 v 4.411 c 0,0.356 -0.121,0.614 -0.363,0.776 C -3.272,5.349 -3.556,5.43 -3.878,5.43 -4.202,5.43 -4.484,5.349 -4.727,5.187 -4.969,5.025 -5.09,4.767 -5.09,4.411 V -7.005 c 0,-0.34 0.121,-0.591 0.363,-0.752 0.243,-0.161 0.525,-0.242 0.849,-0.242 0.322,0 0.606,0.081 0.848,0.242 0.242,0.161 0.363,0.412 0.363,0.752 v 4.896 H 0 c 0.323,0 0.553,0.101 0.69,0.303 0.138,0.202 0.206,0.456 0.206,0.764 0,0.274 -0.068,0.517 -0.206,0.727 C 0.553,-0.105 0.323,0 0,0" /></g><g
           transform="translate(333.5269,178.5146)"
           id="g108"><path
             id="path110"
             style="fill:#a1a2a2;fill-opacity:1;fill-rule:nonzero;stroke:none"
             d="m 0,0 c -0.711,-0.461 -1.866,-0.69 -3.466,-0.69 -1.6,0 -2.755,0.229 -3.466,0.69 -0.712,0.461 -1.067,1.079 -1.067,1.854 0,0.776 0.355,1.394 1.067,1.855 0.711,0.46 1.866,0.69 3.466,0.69 1.6,0 2.755,-0.23 3.466,-0.69 C 0.711,3.248 1.067,2.63 1.067,1.854 1.067,1.079 0.711,0.461 0,0 m 1.661,5.235 c -1.204,0.752 -2.913,1.128 -5.127,1.128 -2.214,0 -3.923,-0.376 -5.127,-1.128 -1.204,-0.751 -1.805,-1.878 -1.805,-3.381 0,-1.502 0.601,-2.629 1.805,-3.381 1.204,-0.751 2.913,-1.127 5.127,-1.127 2.214,0 3.923,0.376 5.127,1.127 1.203,0.752 1.805,1.879 1.805,3.381 0,1.503 -0.602,2.63 -1.805,3.381" /></g><g
           transform="translate(361.2324,188.9736)"
           id="g112"><path
             id="path114"
             style="fill:#a1a2a2;fill-opacity:1;fill-rule:nonzero;stroke:none"
             d="m 0,0 h -18.713 c -0.275,0 -0.481,-0.093 -0.618,-0.278 -0.137,-0.187 -0.206,-0.416 -0.206,-0.692 0,-0.29 0.069,-0.533 0.206,-0.726 0.137,-0.195 0.343,-0.291 0.618,-0.291 H 0 c 0.274,0 0.48,0.096 0.618,0.291 0.137,0.193 0.206,0.436 0.206,0.726 0,0.276 -0.069,0.505 -0.206,0.692 C 0.48,-0.093 0.274,0 0,0" /></g><g
           transform="translate(348.0825,195.8574)"
           id="g116"><path
             id="path118"
             style="fill:#a1a2a2;fill-opacity:1;fill-rule:nonzero;stroke:none"
             d="M 0,0 C 0.784,0.34 2.048,0.51 3.793,0.51 5.539,0.51 6.803,0.34 7.587,0 8.371,-0.339 8.763,-0.823 8.763,-1.454 8.763,-2.084 8.371,-2.573 7.587,-2.92 6.803,-3.269 5.539,-3.441 3.793,-3.441 2.048,-3.441 0.784,-3.269 0,-2.92 c -0.784,0.347 -1.175,0.836 -1.175,1.466 0,0.631 0.391,1.115 1.175,1.454 m -1.636,-4.423 c 1.293,-0.623 3.102,-0.933 5.429,-0.933 2.328,0 4.137,0.31 5.43,0.933 1.293,0.621 1.939,1.611 1.939,2.969 0,1.341 -0.646,2.323 -1.939,2.945 -1.293,0.622 -3.102,0.934 -5.43,0.934 -2.327,0 -4.136,-0.312 -5.429,-0.934 -1.293,-0.622 -1.939,-1.604 -1.939,-2.945 0,-1.358 0.646,-2.348 1.939,-2.969" /></g><g
           transform="translate(359.0269,177.9697)"
           id="g120"><path
             id="path122"
             style="fill:#a1a2a2;fill-opacity:1;fill-rule:nonzero;stroke:none"
             d="m 0,0 h -11.853 c -0.259,0 -0.388,0.121 -0.388,0.363 v 0.994 c 0,0.243 0.129,0.364 0.388,0.364 H -1.6 c 0.711,0 1.2,0.129 1.466,0.387 0.267,0.258 0.401,0.736 0.401,1.43 v 1.794 c 0,0.694 -0.134,1.172 -0.401,1.431 C -0.4,7.021 -0.889,7.15 -1.6,7.15 h -12.265 c -0.275,0 -0.473,-0.097 -0.594,-0.291 -0.121,-0.194 -0.182,-0.412 -0.182,-0.654 0,-0.259 0.061,-0.481 0.182,-0.667 0.121,-0.185 0.319,-0.278 0.594,-0.278 h 11.392 c 0.259,0 0.388,-0.13 0.388,-0.388 v -0.97 c 0,-0.242 -0.129,-0.364 -0.388,-0.364 h -10.253 c -0.711,0 -1.2,-0.129 -1.466,-0.388 -0.267,-0.258 -0.4,-0.735 -0.4,-1.429 v -1.794 c 0,-0.695 0.133,-1.171 0.4,-1.43 0.266,-0.259 0.755,-0.389 1.466,-0.389 H 0 c 0.274,0 0.476,0.094 0.606,0.28 0.129,0.185 0.194,0.408 0.194,0.667 0,0.242 -0.065,0.46 -0.194,0.654 C 0.476,-0.098 0.274,0 0,0" /></g><g
           transform="translate(387.3135,198.5244)"
           id="g124"><path
             id="path126"
             style="fill:#a1a2a2;fill-opacity:1;fill-rule:nonzero;stroke:none"
             d="m 0,0 c -0.307,0 -0.582,-0.081 -0.824,-0.242 -0.242,-0.162 -0.363,-0.421 -0.363,-0.777 v -18.906 c 0,-0.355 0.121,-0.614 0.363,-0.775 0.242,-0.162 0.517,-0.243 0.824,-0.243 0.323,0 0.606,0.081 0.848,0.243 0.243,0.161 0.364,0.42 0.364,0.775 v 18.906 c 0,0.356 -0.121,0.615 -0.364,0.777 C 0.606,-0.081 0.323,0 0,0" /></g><g
           transform="translate(374.709,194.9248)"
           id="g128"><path
             id="path130"
             style="fill:#a1a2a2;fill-opacity:1;fill-rule:nonzero;stroke:none"
             d="M 0,0 C 0.565,0.492 1.446,0.739 2.642,0.739 3.838,0.739 4.718,0.492 5.284,0 5.85,-0.493 6.133,-1.127 6.133,-1.903 6.133,-2.679 5.85,-3.313 5.284,-3.806 4.718,-4.299 3.838,-4.545 2.642,-4.545 c -1.196,0 -2.077,0.246 -2.642,0.739 -0.566,0.493 -0.848,1.127 -0.848,1.903 0,0.776 0.282,1.41 0.848,1.903 m -1.697,-5.236 c 0.485,-0.411 1.087,-0.736 1.806,-0.969 0.719,-0.234 1.563,-0.352 2.533,-0.352 0.97,0 1.814,0.118 2.533,0.352 0.719,0.233 1.321,0.558 1.806,0.969 0.485,0.412 0.849,0.901 1.091,1.466 0.242,0.566 0.364,1.188 0.364,1.867 0,0.678 -0.122,1.3 -0.364,1.867 C 7.83,0.529 7.466,1.018 6.981,1.43 6.496,1.842 5.894,2.165 5.175,2.399 4.456,2.634 3.612,2.751 2.642,2.751 1.672,2.751 0.828,2.634 0.109,2.399 -0.61,2.165 -1.212,1.842 -1.697,1.43 -2.182,1.018 -2.545,0.529 -2.788,-0.036 -3.03,-0.603 -3.151,-1.225 -3.151,-1.903 c 0,-0.679 0.121,-1.301 0.363,-1.867 0.243,-0.565 0.606,-1.054 1.091,-1.466" /></g><g
           transform="translate(383.9199,186.9375)"
           id="g132"><path
             id="path134"
             style="fill:#a1a2a2;fill-opacity:1;fill-rule:nonzero;stroke:none"
             d="m 0,0 c -2.263,-0.193 -4.448,-0.319 -6.557,-0.375 -2.109,-0.058 -4.246,-0.085 -6.411,-0.085 -0.291,0 -0.505,-0.098 -0.642,-0.291 -0.138,-0.194 -0.206,-0.429 -0.206,-0.703 0,-0.275 0.068,-0.518 0.206,-0.728 0.137,-0.21 0.351,-0.314 0.642,-0.314 1.778,0 3.53,0.024 5.26,0.072 v -5.672 c 0,-0.355 0.125,-0.614 0.375,-0.775 0.251,-0.161 0.53,-0.242 0.837,-0.242 0.307,0 0.581,0.081 0.824,0.242 0.242,0.161 0.364,0.42 0.364,0.775 v 5.745 c 1.954,0.097 3.789,0.218 5.502,0.364 0.275,0.032 0.473,0.153 0.594,0.363 0.121,0.21 0.165,0.452 0.133,0.728 C 0.905,-0.605 0.82,-0.375 0.667,-0.206 0.513,-0.036 0.291,0.032 0,0" /></g><g
           transform="translate(408.8135,178.5752)"
           id="g136"><path
             id="path138"
             style="fill:#a1a2a2;fill-opacity:1;fill-rule:nonzero;stroke:none"
             d="m 0,0 h -10.665 c -0.194,0 -0.327,0.036 -0.4,0.109 -0.073,0.073 -0.109,0.199 -0.109,0.375 V 3.66 c 0,0.356 -0.125,0.614 -0.376,0.776 -0.251,0.162 -0.53,0.243 -0.836,0.243 -0.323,0 -0.61,-0.081 -0.861,-0.243 -0.251,-0.162 -0.376,-0.42 -0.376,-0.776 v -3.951 c 0,-0.694 0.134,-1.171 0.401,-1.43 0.266,-0.258 0.755,-0.387 1.466,-0.387 H 0 c 0.307,0 0.529,0.104 0.667,0.314 0.137,0.211 0.206,0.453 0.206,0.728 0,0.291 -0.069,0.542 -0.206,0.751 C 0.529,-0.104 0.307,0 0,0" /></g><g
           transform="translate(404.6323,194.2578)"
           id="g140"><path
             id="path142"
             style="fill:#a1a2a2;fill-opacity:1;fill-rule:nonzero;stroke:none"
             d="M 0,0 C 0.137,0.21 0.206,0.452 0.206,0.728 0.206,1.002 0.137,1.244 0,1.455 -0.138,1.664 -0.352,1.77 -0.643,1.77 h -4.338 v 1.527 c 0,0.355 -0.122,0.614 -0.364,0.775 C -5.587,4.233 -5.87,4.314 -6.193,4.314 -6.5,4.314 -6.779,4.233 -7.029,4.072 -7.28,3.911 -7.405,3.652 -7.405,3.297 V 1.77 h -4.581 c -0.291,0 -0.506,-0.106 -0.642,-0.315 -0.138,-0.211 -0.206,-0.453 -0.206,-0.727 0,-0.276 0.068,-0.518 0.206,-0.728 0.136,-0.21 0.351,-0.314 0.642,-0.314 H -0.643 C -0.352,-0.314 -0.138,-0.21 0,0" /></g><g
           transform="translate(411.7949,192.0527)"
           id="g144"><path
             id="path146"
             style="fill:#a1a2a2;fill-opacity:1;fill-rule:nonzero;stroke:none"
             d="m 0,0 h -2.69 v 5.453 c 0,0.356 -0.122,0.614 -0.364,0.776 -0.242,0.162 -0.526,0.243 -0.848,0.243 -0.307,0 -0.582,-0.081 -0.825,-0.243 C -4.969,6.067 -5.09,5.809 -5.09,5.453 V -9.139 c 0,-0.355 0.121,-0.614 0.363,-0.775 0.243,-0.162 0.518,-0.242 0.825,-0.242 0.322,0 0.606,0.08 0.848,0.242 0.242,0.161 0.364,0.42 0.364,0.775 v 7.054 H 0 c 0.307,0 0.529,0.101 0.667,0.303 0.137,0.202 0.206,0.448 0.206,0.739 0,0.291 -0.069,0.537 -0.206,0.739 C 0.529,-0.102 0.307,0 0,0" /></g><g
           transform="translate(395.4575,188.5371)"
           id="g148"><path
             id="path150"
             style="fill:#a1a2a2;fill-opacity:1;fill-rule:nonzero;stroke:none"
             d="M 0,0 C 0,0.631 0.255,1.144 0.764,1.54 1.273,1.936 2.012,2.134 2.981,2.134 3.967,2.134 4.71,1.936 5.212,1.54 5.712,1.144 5.963,0.631 5.963,0 5.963,-0.614 5.712,-1.123 5.212,-1.526 4.71,-1.931 3.967,-2.133 2.981,-2.133 2.012,-2.133 1.273,-1.931 0.764,-1.526 0.255,-1.123 0,-0.614 0,0 m 6.775,-2.944 c 0.913,0.735 1.37,1.716 1.37,2.944 0,1.229 -0.457,2.21 -1.37,2.945 C 5.862,3.681 4.597,4.049 2.981,4.049 1.366,4.049 0.101,3.681 -0.812,2.945 -1.725,2.21 -2.181,1.229 -2.181,0 c 0,-1.228 0.456,-2.209 1.369,-2.944 0.913,-0.736 2.178,-1.104 3.793,-1.104 1.616,0 2.881,0.368 3.794,1.104" /></g><g
           transform="translate(439.8882,191.2041)"
           id="g152"><path
             id="path154"
             style="fill:#a1a2a2;fill-opacity:1;fill-rule:nonzero;stroke:none"
             d="m 0,0 h -2.667 v 6.302 c 0,0.355 -0.121,0.614 -0.363,0.776 C -3.272,7.239 -3.556,7.32 -3.878,7.32 -4.202,7.32 -4.484,7.239 -4.727,7.078 -4.969,6.916 -5.09,6.657 -5.09,6.302 v -18.906 c 0,-0.356 0.121,-0.615 0.363,-0.776 0.243,-0.162 0.525,-0.243 0.849,-0.243 0.322,0 0.606,0.081 0.848,0.243 0.242,0.161 0.363,0.42 0.363,0.776 V -2.109 H 0 c 0.323,0 0.553,0.105 0.69,0.315 0.138,0.21 0.206,0.461 0.206,0.751 0,0.291 -0.068,0.537 -0.206,0.74 C 0.553,-0.102 0.323,0 0,0" /></g><g
           transform="translate(432.3013,185.75)"
           id="g156"><path
             id="path158"
             style="fill:#a1a2a2;fill-opacity:1;fill-rule:nonzero;stroke:none"
             d="m 0,0 c -1.309,-0.178 -2.65,-0.312 -4.024,-0.399 -1.373,-0.09 -2.86,-0.134 -4.46,-0.134 -0.339,0 -0.509,0.17 -0.509,0.509 v 8.581 c 0,0.339 0.17,0.508 0.509,0.508 h 6.787 c 0.291,0 0.505,0.101 0.642,0.303 0.138,0.202 0.206,0.441 0.206,0.716 0,0.29 -0.068,0.541 -0.206,0.751 -0.137,0.21 -0.351,0.315 -0.642,0.315 H -9.55 c -0.712,0 -1.2,-0.129 -1.467,-0.387 -0.267,-0.259 -0.4,-0.737 -0.4,-1.431 V -0.8 c 0,-0.695 0.133,-1.172 0.4,-1.429 0.267,-0.259 0.755,-0.389 1.467,-0.389 1.179,0 2.25,0.013 3.211,0.037 0.962,0.023 1.838,0.06 2.63,0.108 0.792,0.049 1.515,0.106 2.169,0.17 0.655,0.065 1.265,0.137 1.831,0.218 0.274,0.032 0.464,0.166 0.569,0.4 0.105,0.235 0.141,0.498 0.109,0.789 -0.032,0.274 -0.133,0.5 -0.302,0.678 C 0.497,-0.04 0.274,0.032 0,0" /></g><g
           transform="translate(444.9175,190.9375)"
           id="g160"><path
             id="path162"
             style="fill:#a1a2a2;fill-opacity:1;fill-rule:nonzero;stroke:none"
             d="M 0,0 C -0.121,0.403 -0.182,0.84 -0.182,1.309 -0.182,1.761 -0.121,2.193 0,2.605 0.121,3.018 0.315,3.373 0.582,3.672 0.849,3.971 1.188,4.209 1.6,4.387 2.012,4.564 2.517,4.653 3.115,4.653 3.712,4.653 4.218,4.564 4.63,4.387 5.042,4.209 5.381,3.971 5.648,3.672 5.915,3.373 6.108,3.018 6.229,2.605 6.351,2.193 6.411,1.761 6.411,1.309 6.411,0.84 6.351,0.403 6.229,0 6.108,-0.404 5.915,-0.76 5.648,-1.066 5.381,-1.374 5.042,-1.616 4.63,-1.794 4.218,-1.972 3.712,-2.061 3.115,-2.061 2.517,-2.061 2.012,-1.972 1.6,-1.794 1.188,-1.616 0.849,-1.374 0.582,-1.066 0.315,-0.76 0.121,-0.404 0,0 m 3.115,-4.097 c 0.937,0 1.757,0.137 2.46,0.412 0.703,0.275 1.288,0.655 1.758,1.14 0.468,0.484 0.819,1.054 1.054,1.708 0.234,0.655 0.351,1.37 0.351,2.146 0,0.759 -0.117,1.466 -0.351,2.121 C 8.152,4.084 7.801,4.653 7.333,5.139 6.863,5.623 6.278,6.003 5.575,6.277 4.872,6.553 4.052,6.689 3.115,6.689 2.177,6.689 1.357,6.553 0.654,6.277 -0.048,6.003 -0.634,5.623 -1.103,5.139 -1.572,4.653 -1.923,4.084 -2.157,3.43 -2.392,2.775 -2.509,2.068 -2.509,1.309 c 0,-0.776 0.117,-1.491 0.352,-2.146 0.234,-0.654 0.585,-1.224 1.054,-1.708 0.469,-0.485 1.055,-0.865 1.757,-1.14 0.703,-0.275 1.523,-0.412 2.461,-0.412" /></g><g
           transform="translate(461.8003,193.167)"
           id="g164"><path
             id="path166"
             style="fill:#a1a2a2;fill-opacity:1;fill-rule:nonzero;stroke:none"
             d="M 0,0 C 0.274,0 0.48,0.105 0.618,0.315 0.755,0.525 0.824,0.768 0.824,1.043 0.824,1.317 0.755,1.56 0.618,1.77 0.48,1.979 0.274,2.085 0,2.085 h -2.521 v 2.254 c 0,0.355 -0.121,0.614 -0.364,0.776 -0.242,0.161 -0.525,0.242 -0.848,0.242 -0.324,0 -0.606,-0.081 -0.849,-0.242 C -4.824,4.953 -4.945,4.694 -4.945,4.339 V -6.933 c 0,-0.338 0.121,-0.589 0.363,-0.751 0.243,-0.162 0.525,-0.242 0.849,-0.242 0.323,0 0.606,0.08 0.848,0.242 0.243,0.162 0.364,0.413 0.364,0.751 v 2.788 H 0 c 0.274,0 0.48,0.105 0.618,0.316 0.137,0.209 0.206,0.452 0.206,0.726 0,0.275 -0.069,0.518 -0.206,0.728 C 0.48,-2.165 0.274,-2.06 0,-2.06 H -2.521 V 0 Z" /></g><g
           transform="translate(455.9341,178.5264)"
           id="g168"><path
             id="path170"
             style="fill:#a1a2a2;fill-opacity:1;fill-rule:nonzero;stroke:none"
             d="m 0,0 c -0.711,-0.468 -1.866,-0.702 -3.466,-0.702 -1.6,0 -2.755,0.234 -3.466,0.702 -0.712,0.47 -1.067,1.107 -1.067,1.915 0,0.792 0.355,1.426 1.067,1.903 0.711,0.477 1.866,0.715 3.466,0.715 1.6,0 2.755,-0.234 3.466,-0.703 C 0.711,3.361 1.067,2.724 1.067,1.915 1.067,1.107 0.711,0.47 0,0 m 1.661,5.345 c -1.204,0.767 -2.913,1.151 -5.127,1.151 -2.214,0 -3.923,-0.384 -5.127,-1.151 -1.204,-0.768 -1.805,-1.911 -1.805,-3.43 0,-1.519 0.601,-2.662 1.805,-3.43 1.204,-0.767 2.913,-1.151 5.127,-1.151 2.214,0 3.923,0.384 5.127,1.151 1.203,0.768 1.805,1.911 1.805,3.43 0,1.519 -0.602,2.662 -1.805,3.43" /></g><g
           transform="translate(484.0269,192.0527)"
           id="g172"><path
             id="path174"
             style="fill:#a1a2a2;fill-opacity:1;fill-rule:nonzero;stroke:none"
             d="m 0,0 h -2.69 v 5.453 c 0,0.356 -0.122,0.614 -0.364,0.776 -0.242,0.162 -0.526,0.243 -0.848,0.243 -0.307,0 -0.582,-0.081 -0.825,-0.243 C -4.969,6.067 -5.09,5.809 -5.09,5.453 V -9.139 c 0,-0.355 0.121,-0.614 0.363,-0.775 0.243,-0.162 0.518,-0.242 0.825,-0.242 0.322,0 0.606,0.08 0.848,0.242 0.242,0.161 0.364,0.42 0.364,0.775 v 7.054 H 0 c 0.307,0 0.529,0.101 0.667,0.303 0.137,0.202 0.206,0.448 0.206,0.739 0,0.291 -0.069,0.537 -0.206,0.739 C 0.529,-0.102 0.307,0 0,0" /></g><g
           transform="translate(481.0454,178.5752)"
           id="g176"><path
             id="path178"
             style="fill:#a1a2a2;fill-opacity:1;fill-rule:nonzero;stroke:none"
             d="m 0,0 h -10.665 c -0.194,0 -0.327,0.036 -0.4,0.109 -0.073,0.073 -0.109,0.199 -0.109,0.375 V 3.66 c 0,0.356 -0.125,0.614 -0.376,0.776 -0.251,0.162 -0.53,0.243 -0.836,0.243 -0.323,0 -0.61,-0.081 -0.861,-0.243 -0.251,-0.162 -0.376,-0.42 -0.376,-0.776 v -3.951 c 0,-0.694 0.134,-1.171 0.401,-1.43 0.266,-0.258 0.755,-0.387 1.466,-0.387 H 0 c 0.307,0 0.529,0.104 0.667,0.314 0.137,0.211 0.206,0.453 0.206,0.728 0,0.291 -0.069,0.542 -0.206,0.751 C 0.529,-0.104 0.307,0 0,0" /></g><g
           transform="translate(476.8643,194.2578)"
           id="g180"><path
             id="path182"
             style="fill:#a1a2a2;fill-opacity:1;fill-rule:nonzero;stroke:none"
             d="M 0,0 C 0.137,0.21 0.206,0.452 0.206,0.728 0.206,1.002 0.137,1.244 0,1.455 -0.138,1.664 -0.352,1.77 -0.643,1.77 h -4.338 v 1.527 c 0,0.355 -0.122,0.614 -0.364,0.775 C -5.587,4.233 -5.87,4.314 -6.193,4.314 -6.5,4.314 -6.779,4.233 -7.029,4.072 -7.28,3.911 -7.405,3.652 -7.405,3.297 V 1.77 h -4.581 c -0.291,0 -0.506,-0.106 -0.642,-0.315 -0.138,-0.211 -0.206,-0.453 -0.206,-0.727 0,-0.276 0.068,-0.518 0.206,-0.728 0.136,-0.21 0.351,-0.314 0.642,-0.314 H -0.643 C -0.352,-0.314 -0.138,-0.21 0,0" /></g><g
           transform="translate(467.6895,188.5371)"
           id="g184"><path
             id="path186"
             style="fill:#a1a2a2;fill-opacity:1;fill-rule:nonzero;stroke:none"
             d="M 0,0 C 0,0.631 0.255,1.144 0.764,1.54 1.273,1.936 2.012,2.134 2.981,2.134 3.967,2.134 4.71,1.936 5.212,1.54 5.712,1.144 5.963,0.631 5.963,0 5.963,-0.614 5.712,-1.123 5.212,-1.526 4.71,-1.931 3.967,-2.133 2.981,-2.133 2.012,-2.133 1.273,-1.931 0.764,-1.526 0.255,-1.123 0,-0.614 0,0 m 6.775,-2.944 c 0.913,0.735 1.37,1.716 1.37,2.944 0,1.229 -0.457,2.21 -1.37,2.945 C 5.862,3.681 4.597,4.049 2.981,4.049 1.366,4.049 0.101,3.681 -0.812,2.945 -1.725,2.21 -2.181,1.229 -2.181,0 c 0,-1.228 0.456,-2.209 1.369,-2.944 0.913,-0.736 2.178,-1.104 3.793,-1.104 1.616,0 2.881,0.368 3.794,1.104" /></g><path
           id="path188"
           style="fill:#a1a2a2;fill-opacity:1;fill-rule:nonzero;stroke:none"
           d="m 499.952,194.912 h 4.897 v -6.884 h -4.897 z m -4.824,-6.884 c -0.275,0 -0.481,-0.1 -0.618,-0.302 -0.137,-0.203 -0.206,-0.441 -0.206,-0.715 0,-0.276 0.069,-0.509 0.206,-0.703 0.137,-0.195 0.343,-0.291 0.618,-0.291 h 14.544 c 0.274,0 0.48,0.096 0.618,0.291 0.137,0.194 0.206,0.427 0.206,0.703 0,0.274 -0.069,0.512 -0.206,0.715 -0.138,0.202 -0.344,0.302 -0.618,0.302 h -2.473 v 6.884 h 2.352 c 0.291,0 0.505,0.098 0.642,0.291 0.137,0.194 0.205,0.429 0.205,0.703 0,0.275 -0.068,0.513 -0.205,0.715 -0.137,0.202 -0.351,0.304 -0.642,0.304 H 495.25 c -0.292,0 -0.506,-0.102 -0.643,-0.304 -0.137,-0.202 -0.206,-0.44 -0.206,-0.715 0,-0.274 0.069,-0.509 0.206,-0.703 0.137,-0.193 0.351,-0.291 0.643,-0.291 h 2.351 v -6.884 z" /><g
           transform="translate(511.7324,181.7744)"
           id="g190"><path
             id="path192"
             style="fill:#a1a2a2;fill-opacity:1;fill-rule:nonzero;stroke:none"
             d="m 0,0 h -18.665 c -0.291,0 -0.505,-0.101 -0.642,-0.303 -0.137,-0.202 -0.206,-0.448 -0.206,-0.739 0,-0.274 0.069,-0.518 0.206,-0.728 0.137,-0.209 0.351,-0.314 0.642,-0.314 H 0 c 0.291,0 0.505,0.105 0.642,0.314 0.137,0.21 0.206,0.454 0.206,0.728 0,0.291 -0.069,0.537 -0.206,0.739 C 0.505,-0.101 0.291,0 0,0" /></g><g
           transform="translate(533.79,181.751)"
           id="g194"><path
             id="path196"
             style="fill:#a1a2a2;fill-opacity:1;fill-rule:nonzero;stroke:none"
             d="m 0,0 h -8.12 v 3.806 h 5.793 c 0.291,0 0.505,0.1 0.642,0.302 0.137,0.202 0.206,0.44 0.206,0.715 0,0.275 -0.069,0.517 -0.206,0.728 -0.137,0.209 -0.351,0.314 -0.642,0.314 h -11.466 c -0.339,0 -0.509,0.162 -0.509,0.486 v 1.817 c 0,0.34 0.17,0.51 0.509,0.51 h 9.914 c 0.711,0 1.2,0.129 1.467,0.387 0.266,0.258 0.4,0.727 0.4,1.406 v 3.223 c 0,0.696 -0.134,1.172 -0.4,1.431 -0.267,0.258 -0.756,0.388 -1.467,0.388 h -11.998 c -0.291,0 -0.505,-0.106 -0.643,-0.316 -0.137,-0.21 -0.206,-0.452 -0.206,-0.726 0,-0.276 0.069,-0.514 0.206,-0.715 0.138,-0.203 0.352,-0.304 0.643,-0.304 h 10.981 c 0.338,0 0.508,-0.169 0.508,-0.509 v -1.794 c 0,-0.338 -0.17,-0.508 -0.508,-0.508 h -9.915 c -0.71,0 -1.2,-0.125 -1.466,-0.376 -0.267,-0.25 -0.4,-0.723 -0.4,-1.418 V 5.623 c 0,-0.695 0.133,-1.172 0.4,-1.43 0.266,-0.258 0.756,-0.387 1.466,-0.387 h 4.267 V 0 h -8.121 c -0.29,0 -0.505,-0.102 -0.642,-0.304 -0.137,-0.202 -0.206,-0.44 -0.206,-0.715 0,-0.274 0.069,-0.517 0.206,-0.727 0.137,-0.21 0.352,-0.315 0.642,-0.315 H 0 c 0.291,0 0.505,0.105 0.642,0.315 0.137,0.21 0.206,0.453 0.206,0.727 0,0.275 -0.069,0.513 -0.206,0.715 C 0.505,-0.102 0.291,0 0,0" /></g><g
           transform="translate(539.7041,194.7432)"
           id="g198"><path
             id="path200"
             style="fill:#a1a2a2;fill-opacity:1;fill-rule:nonzero;stroke:none"
             d="m 0,0 h 11.126 c 0.178,0 0.307,-0.037 0.388,-0.109 0.08,-0.073 0.121,-0.206 0.121,-0.401 v -1.624 c 0,-1.26 -0.057,-2.549 -0.17,-3.866 -0.113,-1.316 -0.299,-2.646 -0.558,-3.987 -0.081,-0.324 -0.024,-0.581 0.17,-0.776 0.194,-0.193 0.437,-0.323 0.728,-0.387 0.354,-0.065 0.674,-0.033 0.957,0.096 0.282,0.13 0.456,0.356 0.521,0.679 0.275,1.276 0.473,2.618 0.594,4.024 0.121,1.406 0.182,2.957 0.182,4.654 v 2.011 c 0,0.696 -0.133,1.172 -0.401,1.431 -0.266,0.258 -0.755,0.388 -1.466,0.388 H 0 c -0.308,0 -0.525,-0.106 -0.654,-0.316 -0.13,-0.21 -0.195,-0.468 -0.195,-0.775 0,-0.275 0.065,-0.518 0.195,-0.728 C -0.525,0.104 -0.308,0 0,0" /></g><g
           transform="translate(555.8477,181.7744)"
           id="g202"><path
             id="path204"
             style="fill:#a1a2a2;fill-opacity:1;fill-rule:nonzero;stroke:none"
             d="m 0,0 h -18.665 c -0.29,0 -0.505,-0.101 -0.642,-0.303 -0.137,-0.202 -0.206,-0.448 -0.206,-0.739 0,-0.274 0.069,-0.518 0.206,-0.728 0.137,-0.209 0.352,-0.314 0.642,-0.314 H 0 c 0.291,0 0.505,0.105 0.642,0.314 0.137,0.21 0.206,0.454 0.206,0.728 0,0.291 -0.069,0.537 -0.206,0.739 C 0.505,-0.101 0.291,0 0,0" /></g><g
           transform="translate(576.2324,198.5244)"
           id="g206"><path
             id="path208"
             style="fill:#a1a2a2;fill-opacity:1;fill-rule:nonzero;stroke:none"
             d="m 0,0 c -0.275,0 -0.529,-0.077 -0.764,-0.23 -0.234,-0.155 -0.351,-0.392 -0.351,-0.715 v -4.703 h -2.594 v 4.582 c 0,0.322 -0.117,0.56 -0.352,0.714 -0.234,0.154 -0.496,0.231 -0.787,0.231 -0.275,0 -0.529,-0.077 -0.763,-0.231 -0.235,-0.154 -0.352,-0.392 -0.352,-0.714 V -12.29 c 0,-0.323 0.117,-0.562 0.352,-0.715 0.234,-0.153 0.488,-0.23 0.763,-0.23 0.291,0 0.553,0.077 0.787,0.23 0.235,0.153 0.352,0.392 0.352,0.715 v 4.63 h 2.594 v -4.751 c 0,-0.323 0.117,-0.562 0.351,-0.715 0.235,-0.153 0.489,-0.23 0.764,-0.23 0.291,0 0.554,0.077 0.788,0.23 0.233,0.153 0.352,0.392 0.352,0.715 v 11.466 c 0,0.323 -0.119,0.56 -0.352,0.715 C 0.554,-0.077 0.291,0 0,0" /></g><g
           transform="translate(574.9717,178.793)"
           id="g210"><path
             id="path212"
             style="fill:#a1a2a2;fill-opacity:1;fill-rule:nonzero;stroke:none"
             d="m 0,0 c 0,-0.322 -0.169,-0.484 -0.509,-0.484 h -8.944 c -0.339,0 -0.509,0.162 -0.509,0.484 v 2.837 c 0,0.322 0.17,0.484 0.509,0.484 h 8.944 C -0.169,3.321 0,3.159 0,2.837 Z m 0.533,5.333 h -11.028 c -0.712,0 -1.2,-0.13 -1.467,-0.388 -0.267,-0.258 -0.399,-0.735 -0.399,-1.43 v -4.194 c 0,-0.694 0.132,-1.171 0.399,-1.429 0.267,-0.258 0.755,-0.388 1.467,-0.388 H 0.533 c 0.711,0 1.2,0.13 1.467,0.388 0.267,0.258 0.4,0.735 0.4,1.429 V 3.515 C 2.4,4.21 2.267,4.687 2,4.945 1.733,5.203 1.244,5.333 0.533,5.333" /></g><g
           transform="translate(568.3301,186.4775)"
           id="g214"><path
             id="path216"
             style="fill:#a1a2a2;fill-opacity:1;fill-rule:nonzero;stroke:none"
             d="M 0,0 C 0.275,0.032 0.465,0.161 0.57,0.388 0.675,0.613 0.711,0.872 0.679,1.163 0.646,1.437 0.55,1.656 0.388,1.817 0.227,1.979 0.008,2.044 -0.267,2.012 -1.123,1.882 -2.101,1.785 -3.199,1.721 -4.299,1.656 -5.381,1.624 -6.447,1.624 c -0.34,0 -0.509,0.169 -0.509,0.509 v 1.624 c 0,0.339 0.169,0.509 0.509,0.509 h 3.805 c 0.711,0 1.2,0.129 1.467,0.387 0.267,0.259 0.4,0.728 0.4,1.407 v 2.932 c 0,0.696 -0.133,1.172 -0.4,1.431 -0.267,0.258 -0.756,0.388 -1.467,0.388 h -5.841 c -0.276,0 -0.477,-0.102 -0.607,-0.303 -0.129,-0.202 -0.193,-0.441 -0.193,-0.716 0,-0.274 0.064,-0.513 0.193,-0.715 0.13,-0.202 0.331,-0.303 0.607,-0.303 h 4.872 c 0.194,0 0.327,-0.041 0.4,-0.121 0.072,-0.081 0.108,-0.21 0.108,-0.387 V 6.689 c 0,-0.177 -0.036,-0.306 -0.108,-0.387 -0.073,-0.081 -0.206,-0.121 -0.4,-0.121 h -3.806 c -0.711,0 -1.2,-0.13 -1.467,-0.388 C -9.15,5.534 -9.283,5.058 -9.283,4.362 V 1.405 c 0,-0.678 0.133,-1.147 0.399,-1.405 0.267,-0.259 0.756,-0.388 1.467,-0.388 1.81,0 3.345,0.036 4.605,0.109 C -1.551,-0.206 -0.614,-0.113 0,0" /></g><g
           transform="translate(582.4854,194.6699)"
           id="g218"><path
             id="path220"
             style="fill:#a1a2a2;fill-opacity:1;fill-rule:nonzero;stroke:none"
             d="m 0,0 h 7.489 c 0.34,0 0.51,-0.17 0.51,-0.509 v -0.8 C 7.999,-2.327 7.95,-3.293 7.854,-4.205 7.756,-5.118 7.595,-6.068 7.368,-7.054 7.304,-7.377 7.36,-7.635 7.538,-7.829 c 0.178,-0.194 0.42,-0.323 0.728,-0.388 0.354,-0.064 0.662,-0.032 0.921,0.097 0.257,0.129 0.427,0.331 0.508,0.606 0.469,1.729 0.703,3.822 0.703,6.278 v 1.527 c 0,0.694 -0.133,1.172 -0.4,1.43 C 9.731,1.979 9.243,2.109 8.532,2.109 H 0 c -0.291,0 -0.506,-0.105 -0.643,-0.315 -0.137,-0.21 -0.206,-0.461 -0.206,-0.751 0,-0.291 0.069,-0.538 0.206,-0.74 C -0.506,0.101 -0.291,0 0,0" /></g><g
           transform="translate(600.4463,190.4766)"
           id="g222"><path
             id="path224"
             style="fill:#a1a2a2;fill-opacity:1;fill-rule:nonzero;stroke:none"
             d="m 0,0 h -2.352 v 7.054 c 0,0.34 -0.121,0.59 -0.363,0.752 C -2.957,7.967 -3.24,8.048 -3.563,8.048 -3.87,8.048 -4.145,7.967 -4.388,7.806 -4.63,7.644 -4.751,7.394 -4.751,7.054 v -18.955 c 0,-0.339 0.121,-0.59 0.363,-0.751 0.243,-0.162 0.518,-0.244 0.825,-0.244 0.323,0 0.606,0.082 0.848,0.244 0.242,0.161 0.363,0.412 0.363,0.751 v 9.793 H 0 c 0.323,0 0.554,0.104 0.69,0.314 0.138,0.21 0.206,0.461 0.206,0.752 0,0.291 -0.068,0.537 -0.206,0.739 C 0.554,-0.101 0.323,0 0,0" /></g><g
           transform="translate(593.5381,183.9561)"
           id="g226"><path
             id="path228"
             style="fill:#a1a2a2;fill-opacity:1;fill-rule:nonzero;stroke:none"
             d="m 0,0 c -1.131,-0.113 -2.242,-0.193 -3.333,-0.242 -1.091,-0.049 -2.178,-0.089 -3.26,-0.121 V 5.43 c 0,0.34 -0.121,0.59 -0.364,0.752 -0.242,0.161 -0.517,0.242 -0.823,0.242 -0.308,0 -0.582,-0.081 -0.824,-0.242 C -8.848,6.02 -8.969,5.77 -8.969,5.43 v -5.842 h -3.32 c -0.291,0 -0.506,-0.101 -0.643,-0.303 -0.137,-0.202 -0.206,-0.44 -0.206,-0.715 0,-0.275 0.069,-0.517 0.206,-0.727 0.137,-0.21 0.352,-0.315 0.643,-0.315 2.246,0 4.419,0.033 6.52,0.097 2.101,0.064 4.081,0.186 5.939,0.363 0.274,0.033 0.473,0.154 0.594,0.364 0.121,0.21 0.165,0.453 0.132,0.727 C 0.864,-0.63 0.775,-0.396 0.63,-0.218 0.485,-0.04 0.274,0.032 0,0" /></g><g
           transform="translate(625.7773,198.5244)"
           id="g230"><path
             id="path232"
             style="fill:#a1a2a2;fill-opacity:1;fill-rule:nonzero;stroke:none"
             d="m 0,0 c -0.308,0 -0.582,-0.081 -0.824,-0.242 -0.242,-0.162 -0.364,-0.421 -0.364,-0.777 v -6.422 h -4.754 c 0.016,0.294 0.027,0.597 0.027,0.92 v 3.079 c 0,0.694 -0.133,1.171 -0.399,1.43 -0.267,0.258 -0.756,0.388 -1.467,0.388 h -7.175 c -0.307,0 -0.529,-0.105 -0.666,-0.315 -0.138,-0.21 -0.206,-0.453 -0.206,-0.728 0,-0.274 0.068,-0.517 0.206,-0.727 0.137,-0.21 0.359,-0.315 0.666,-0.315 h 6.181 c 0.177,0 0.307,-0.036 0.388,-0.109 0.08,-0.073 0.121,-0.206 0.121,-0.4 v -2.569 l -7.344,-0.34 c -0.308,-0.016 -0.522,-0.137 -0.643,-0.363 -0.121,-0.227 -0.174,-0.469 -0.157,-0.728 0.032,-0.29 0.121,-0.537 0.266,-0.739 0.146,-0.202 0.364,-0.287 0.655,-0.254 l 7.029,0.412 c -0.13,-0.421 -0.335,-0.816 -0.618,-1.188 -0.283,-0.371 -0.694,-0.768 -1.236,-1.188 -0.541,-0.42 -1.241,-0.892 -2.097,-1.418 -0.857,-0.525 -1.923,-1.151 -3.199,-1.878 -0.276,-0.162 -0.429,-0.396 -0.461,-0.703 -0.033,-0.307 0.032,-0.582 0.194,-0.824 0.161,-0.259 0.379,-0.429 0.654,-0.509 0.275,-0.081 0.541,-0.049 0.8,0.097 1.212,0.711 2.267,1.345 3.163,1.902 0.898,0.558 1.661,1.083 2.291,1.576 0.63,0.493 1.143,0.965 1.539,1.418 0.396,0.452 0.707,0.925 0.934,1.418 0.087,0.19 0.153,0.391 0.218,0.594 h 5.09 v -10.423 c 0,-0.355 0.122,-0.614 0.364,-0.775 0.242,-0.162 0.516,-0.243 0.824,-0.243 0.322,0 0.605,0.081 0.848,0.243 0.243,0.161 0.364,0.42 0.364,0.775 v 18.906 c 0,0.356 -0.121,0.615 -0.364,0.777 C 0.605,-0.081 0.322,0 0,0" /></g><g
           transform="translate(635.835,194.9609)"
           id="g234"><path
             id="path236"
             style="fill:#a1a2a2;fill-opacity:1;fill-rule:nonzero;stroke:none"
             d="M 0,0 C 0,0.323 0.17,0.484 0.509,0.484 H 9.43 C 9.769,0.484 9.938,0.323 9.938,0 v -3.999 c 0,-0.324 -0.169,-0.485 -0.508,-0.485 H 0.509 C 0.17,-4.484 0,-4.323 0,-3.999 Z m -0.581,-6.568 h 11.102 c 0.71,0 1.199,0.129 1.465,0.387 0.267,0.258 0.401,0.735 0.401,1.43 v 5.503 c 0,0.694 -0.134,1.171 -0.401,1.43 -0.266,0.257 -0.755,0.387 -1.465,0.387 H -0.581 c -0.712,0 -1.196,-0.13 -1.455,-0.387 -0.259,-0.259 -0.388,-0.736 -0.388,-1.43 v -5.503 c 0,-0.695 0.129,-1.172 0.388,-1.43 0.259,-0.258 0.743,-0.387 1.455,-0.387" /></g><g
           transform="translate(650.1367,185.7744)"
           id="g238"><path
             id="path240"
             style="fill:#a1a2a2;fill-opacity:1;fill-rule:nonzero;stroke:none"
             d="m 0,0 h -18.665 c -0.29,0 -0.505,-0.105 -0.642,-0.315 -0.137,-0.21 -0.206,-0.453 -0.206,-0.727 0,-0.275 0.069,-0.51 0.206,-0.703 0.137,-0.194 0.352,-0.291 0.642,-0.291 h 4.703 v -6.738 c 0,-0.356 0.117,-0.611 0.352,-0.764 0.233,-0.153 0.505,-0.231 0.811,-0.231 0.291,0 0.558,0.078 0.8,0.231 0.242,0.153 0.364,0.408 0.364,0.764 v 6.738 h 4.606 v -6.738 c 0,-0.356 0.121,-0.611 0.363,-0.764 0.242,-0.153 0.517,-0.231 0.824,-0.231 0.291,0 0.553,0.078 0.787,0.231 0.235,0.153 0.352,0.408 0.352,0.764 v 6.738 H 0 c 0.291,0 0.505,0.097 0.642,0.291 0.137,0.193 0.206,0.428 0.206,0.703 0,0.274 -0.069,0.517 -0.206,0.727 C 0.505,-0.105 0.291,0 0,0" /></g><g
           transform="translate(669.7217,198.5244)"
           id="g242"><path
             id="path244"
             style="fill:#a1a2a2;fill-opacity:1;fill-rule:nonzero;stroke:none"
             d="m 0,0 c -0.308,0 -0.586,-0.081 -0.836,-0.242 -0.251,-0.162 -0.376,-0.421 -0.376,-0.777 v -18.906 c 0,-0.355 0.125,-0.614 0.376,-0.775 0.25,-0.162 0.528,-0.243 0.836,-0.243 0.323,0 0.609,0.081 0.86,0.243 0.25,0.161 0.376,0.42 0.376,0.775 v 18.906 c 0,0.356 -0.126,0.615 -0.376,0.777 C 0.609,-0.081 0.323,0 0,0" /></g><g
           transform="translate(665.7217,185.8232)"
           id="g246"><path
             id="path248"
             style="fill:#a1a2a2;fill-opacity:1;fill-rule:nonzero;stroke:none"
             d="m 0,0 c -1.309,-0.179 -2.658,-0.312 -4.048,-0.4 -1.389,-0.089 -2.925,-0.134 -4.605,-0.134 -0.339,0 -0.509,0.17 -0.509,0.51 v 10.277 c 0,0.371 -0.121,0.638 -0.363,0.8 -0.243,0.161 -0.526,0.242 -0.849,0.242 -0.323,0 -0.605,-0.081 -0.849,-0.242 -0.242,-0.162 -0.363,-0.429 -0.363,-0.8 V -0.801 c 0,-0.694 0.129,-1.171 0.388,-1.429 0.259,-0.259 0.743,-0.388 1.454,-0.388 1.228,0 2.335,0.012 3.321,0.036 0.986,0.024 1.882,0.061 2.691,0.109 0.807,0.048 1.539,0.105 2.193,0.17 0.654,0.064 1.265,0.137 1.83,0.218 0.274,0.032 0.465,0.165 0.57,0.399 0.105,0.235 0.141,0.498 0.109,0.789 C 0.937,-0.623 0.837,-0.396 0.667,-0.219 0.497,-0.041 0.275,0.032 0,0" /></g><g
           transform="translate(691.7793,198.5244)"
           id="g250"><path
             id="path252"
             style="fill:#a1a2a2;fill-opacity:1;fill-rule:nonzero;stroke:none"
             d="m 0,0 c -0.308,0 -0.586,-0.081 -0.836,-0.242 -0.251,-0.162 -0.376,-0.421 -0.376,-0.777 v -18.906 c 0,-0.355 0.125,-0.614 0.376,-0.775 0.25,-0.162 0.528,-0.243 0.836,-0.243 0.323,0 0.609,0.081 0.86,0.243 0.25,0.161 0.376,0.42 0.376,0.775 v 18.906 c 0,0.356 -0.126,0.615 -0.376,0.777 C 0.609,-0.081 0.323,0 0,0" /></g><g
           transform="translate(687.7793,185.5566)"
           id="g254"><path
             id="path256"
             style="fill:#a1a2a2;fill-opacity:1;fill-rule:nonzero;stroke:none"
             d="M 0,0 C -1.309,-0.179 -2.662,-0.308 -4.06,-0.389 -5.458,-0.47 -7.021,-0.51 -8.75,-0.51 c -0.339,0 -0.509,0.161 -0.509,0.486 V 3.49 h 7.151 c 0.274,0 0.48,0.101 0.618,0.303 0.136,0.202 0.206,0.44 0.206,0.715 0,0.274 -0.07,0.509 -0.206,0.703 -0.138,0.194 -0.344,0.291 -0.618,0.291 H -9.259 V 8.92 c 0,0.322 0.17,0.484 0.509,0.484 h 6.836 c 0.307,0 0.528,0.105 0.666,0.316 0.138,0.21 0.206,0.452 0.206,0.726 0,0.276 -0.068,0.518 -0.206,0.728 -0.138,0.21 -0.359,0.315 -0.666,0.315 h -7.878 c -0.712,0 -1.2,-0.13 -1.467,-0.387 -0.266,-0.259 -0.399,-0.737 -0.399,-1.431 V -0.776 c 0,-0.695 0.133,-1.172 0.399,-1.43 0.267,-0.259 0.755,-0.388 1.467,-0.388 1.228,0 2.339,0.012 3.333,0.036 0.993,0.025 1.898,0.061 2.715,0.11 0.815,0.048 1.551,0.104 2.205,0.169 0.654,0.064 1.265,0.137 1.83,0.218 0.274,0.033 0.465,0.165 0.57,0.4 0.105,0.234 0.141,0.489 0.109,0.764 C 0.937,-0.606 0.837,-0.376 0.667,-0.206 0.497,-0.037 0.275,0.031 0,0" /></g><g
           transform="translate(714.1279,177.9453)"
           id="g258"><path
             id="path260"
             style="fill:#a1a2a2;fill-opacity:1;fill-rule:nonzero;stroke:none"
             d="m 0,0 h -11.878 c -0.258,0 -0.388,0.121 -0.388,0.363 v 0.8 c 0,0.242 0.13,0.363 0.388,0.363 H -1.6 c 0.711,0 1.2,0.13 1.466,0.389 0.267,0.258 0.401,0.734 0.401,1.43 v 1.527 c 0,0.694 -0.134,1.171 -0.401,1.43 C -0.4,6.561 -0.889,6.689 -1.6,6.689 h -12.265 c -0.275,0 -0.473,-0.092 -0.594,-0.278 -0.121,-0.186 -0.182,-0.4 -0.182,-0.642 0,-0.243 0.061,-0.457 0.182,-0.643 0.121,-0.186 0.319,-0.278 0.594,-0.278 h 11.417 c 0.242,0 0.363,-0.13 0.363,-0.388 V 3.685 c 0,-0.244 -0.121,-0.365 -0.363,-0.365 h -10.278 c -0.712,0 -1.2,-0.129 -1.466,-0.387 -0.267,-0.259 -0.4,-0.736 -0.4,-1.43 v -1.552 c 0,-0.694 0.133,-1.171 0.4,-1.43 0.266,-0.258 0.754,-0.388 1.466,-0.388 H 0 c 0.274,0 0.477,0.094 0.605,0.279 0.13,0.186 0.195,0.408 0.195,0.667 0,0.226 -0.065,0.436 -0.195,0.63 C 0.477,-0.098 0.274,0 0,0" /></g><g
           transform="translate(700.4082,196.2461)"
           id="g262"><path
             id="path264"
             style="fill:#a1a2a2;fill-opacity:1;fill-rule:nonzero;stroke:none"
             d="m 0,0 h 11.126 c 0.258,0 0.388,-0.122 0.388,-0.364 V -1.14 c 0,-0.258 -0.13,-0.387 -0.388,-0.387 H 1.14 c -0.712,0 -1.201,-0.13 -1.467,-0.388 -0.267,-0.259 -0.401,-0.735 -0.401,-1.431 v -1.55 c 0,-0.696 0.134,-1.168 0.401,-1.418 0.266,-0.251 0.755,-0.376 1.467,-0.376 h 12.459 c 0.274,0 0.472,0.092 0.593,0.278 0.121,0.185 0.182,0.4 0.182,0.642 0,0.243 -0.061,0.458 -0.182,0.643 -0.121,0.186 -0.319,0.278 -0.593,0.278 H 1.987 c -0.258,0 -0.387,0.121 -0.387,0.365 v 0.799 c 0,0.258 0.129,0.388 0.387,0.388 h 9.988 c 0.711,0 1.199,0.129 1.465,0.388 0.267,0.259 0.401,0.727 0.401,1.406 v 1.551 c 0,0.694 -0.134,1.172 -0.401,1.431 -0.266,0.257 -0.754,0.387 -1.465,0.387 L 0,1.866 c -0.274,0 -0.473,-0.096 -0.594,-0.291 -0.121,-0.194 -0.181,-0.412 -0.181,-0.654 0,-0.242 0.06,-0.457 0.181,-0.643 C -0.473,0.093 -0.274,0 0,0" /></g><g
           transform="translate(716.333,188.0527)"
           id="g266"><path
             id="path268"
             style="fill:#a1a2a2;fill-opacity:1;fill-rule:nonzero;stroke:none"
             d="m 0,0 h -18.712 c -0.275,0 -0.481,-0.093 -0.618,-0.278 -0.138,-0.187 -0.206,-0.417 -0.206,-0.692 0,-0.274 0.068,-0.501 0.206,-0.678 0.137,-0.178 0.343,-0.267 0.618,-0.267 H 0 c 0.275,0 0.481,0.089 0.618,0.267 0.138,0.177 0.206,0.404 0.206,0.678 0,0.275 -0.068,0.505 -0.206,0.692 C 0.481,-0.093 0.275,0 0,0" /></g><g
           transform="translate(728.501,188.5371)"
           id="g270"><path
             id="path272"
             style="fill:#a1a2a2;fill-opacity:1;fill-rule:nonzero;stroke:none"
             d="M 0,0 C 0,0.631 0.255,1.144 0.764,1.54 1.272,1.936 2.012,2.134 2.981,2.134 3.967,2.134 4.711,1.936 5.212,1.54 5.712,1.144 5.963,0.631 5.963,0 5.963,-0.614 5.712,-1.123 5.212,-1.526 4.711,-1.931 3.967,-2.133 2.981,-2.133 2.012,-2.133 1.272,-1.931 0.764,-1.526 0.255,-1.123 0,-0.614 0,0 m 6.775,-2.944 c 0.912,0.735 1.37,1.716 1.37,2.944 0,1.229 -0.458,2.21 -1.37,2.945 C 5.862,3.681 4.598,4.049 2.981,4.049 1.365,4.049 0.101,3.681 -0.812,2.945 -1.725,2.21 -2.182,1.229 -2.182,0 c 0,-1.228 0.457,-2.209 1.37,-2.944 0.913,-0.736 2.177,-1.104 3.793,-1.104 1.617,0 2.881,0.368 3.794,1.104" /></g><g
           transform="translate(737.6758,194.2578)"
           id="g274"><path
             id="path276"
             style="fill:#a1a2a2;fill-opacity:1;fill-rule:nonzero;stroke:none"
             d="M 0,0 C 0.137,0.21 0.206,0.452 0.206,0.728 0.206,1.002 0.137,1.244 0,1.455 -0.138,1.664 -0.352,1.77 -0.643,1.77 h -4.338 v 1.527 c 0,0.355 -0.122,0.614 -0.364,0.775 C -5.587,4.233 -5.87,4.314 -6.193,4.314 -6.5,4.314 -6.779,4.233 -7.029,4.072 -7.28,3.911 -7.405,3.652 -7.405,3.297 V 1.77 h -4.581 c -0.291,0 -0.505,-0.106 -0.643,-0.315 -0.138,-0.211 -0.206,-0.453 -0.206,-0.727 0,-0.276 0.068,-0.518 0.206,-0.728 0.138,-0.21 0.352,-0.314 0.643,-0.314 H -0.643 C -0.352,-0.314 -0.138,-0.21 0,0" /></g><g
           transform="translate(744.8389,192.0527)"
           id="g278"><path
             id="path280"
             style="fill:#a1a2a2;fill-opacity:1;fill-rule:nonzero;stroke:none"
             d="m 0,0 h -2.691 v 5.453 c 0,0.356 -0.122,0.614 -0.364,0.776 C -3.297,6.391 -3.58,6.472 -3.903,6.472 -4.21,6.472 -4.484,6.391 -4.727,6.229 -4.97,6.067 -5.091,5.809 -5.091,5.453 V -9.139 c 0,-0.355 0.121,-0.614 0.364,-0.775 0.243,-0.162 0.517,-0.242 0.824,-0.242 0.323,0 0.606,0.08 0.848,0.242 0.242,0.161 0.364,0.42 0.364,0.775 v 7.054 H 0 c 0.307,0 0.528,0.101 0.666,0.303 0.138,0.202 0.206,0.448 0.206,0.739 0,0.291 -0.068,0.537 -0.206,0.739 C 0.528,-0.102 0.307,0 0,0" /></g><g
           transform="translate(741.8574,178.5752)"
           id="g282"><path
             id="path284"
             style="fill:#a1a2a2;fill-opacity:1;fill-rule:nonzero;stroke:none"
             d="m 0,0 h -10.666 c -0.193,0 -0.327,0.036 -0.399,0.109 -0.074,0.073 -0.11,0.199 -0.11,0.375 V 3.66 c 0,0.356 -0.125,0.614 -0.376,0.776 -0.25,0.162 -0.529,0.243 -0.836,0.243 -0.323,0 -0.61,-0.081 -0.86,-0.243 -0.251,-0.162 -0.376,-0.42 -0.376,-0.776 v -3.951 c 0,-0.694 0.134,-1.171 0.4,-1.43 0.267,-0.258 0.755,-0.387 1.466,-0.387 H 0 c 0.307,0 0.528,0.104 0.666,0.314 0.138,0.211 0.206,0.453 0.206,0.728 0,0.291 -0.068,0.542 -0.206,0.751 C 0.528,-0.104 0.307,0 0,0" /></g><g
           transform="translate(756.0127,188.6826)"
           id="g286"><path
             id="path288"
             style="fill:#a1a2a2;fill-opacity:1;fill-rule:nonzero;stroke:none"
             d="m 0,0 c 0,-0.339 -0.17,-0.509 -0.509,-0.509 h -4.46 c -0.194,0 -0.327,0.04 -0.4,0.121 -0.072,0.081 -0.11,0.21 -0.11,0.388 V 2.691 H 0 Z m 2,-2.133 c 0.267,0.259 0.399,0.736 0.399,1.431 V 2.013 H 6.98 v -7.539 c 0,-0.356 0.123,-0.615 0.365,-0.776 0.242,-0.162 0.524,-0.242 0.847,-0.242 0.308,0 0.582,0.08 0.825,0.242 0.243,0.161 0.364,0.42 0.364,0.776 V 8.823 C 9.381,9.179 9.26,9.438 9.017,9.6 8.774,9.761 8.5,9.842 8.192,9.842 7.869,9.842 7.587,9.761 7.345,9.6 7.103,9.438 6.98,9.179 6.98,8.823 V 4.072 H 2.399 V 7.636 C 2.399,7.991 2.274,8.25 2.024,8.411 1.773,8.573 1.494,8.654 1.187,8.654 0.881,8.654 0.605,8.573 0.363,8.411 0.121,8.25 0,7.991 0,7.636 V 4.703 h -5.479 v 2.933 c 0,0.355 -0.125,0.614 -0.375,0.775 -0.25,0.162 -0.529,0.243 -0.836,0.243 -0.307,0 -0.581,-0.081 -0.825,-0.243 C -7.757,8.25 -7.878,7.991 -7.878,7.636 v -8.338 c 0,-0.695 0.134,-1.172 0.4,-1.431 0.267,-0.259 0.755,-0.388 1.466,-0.388 h 6.545 c 0.711,0 1.2,0.129 1.467,0.388" /></g><g
           transform="translate(765.1025,178.5752)"
           id="g290"><path
             id="path292"
             style="fill:#a1a2a2;fill-opacity:1;fill-rule:nonzero;stroke:none"
             d="m 0,0 h -11.005 c -0.193,0 -0.327,0.036 -0.399,0.109 -0.074,0.073 -0.11,0.199 -0.11,0.375 v 3.952 c 0,0.355 -0.125,0.614 -0.376,0.776 -0.251,0.161 -0.529,0.242 -0.836,0.242 -0.323,0 -0.61,-0.081 -0.86,-0.242 -0.251,-0.162 -0.376,-0.421 -0.376,-0.776 v -4.727 c 0,-0.694 0.133,-1.171 0.399,-1.43 0.268,-0.258 0.756,-0.387 1.467,-0.387 H 0 c 0.307,0 0.529,0.104 0.666,0.314 0.138,0.211 0.206,0.453 0.206,0.728 0,0.291 -0.068,0.542 -0.206,0.751 C 0.529,-0.104 0.307,0 0,0" /></g><g
           transform="translate(786.8682,198.5244)"
           id="g294"><path
             id="path296"
             style="fill:#a1a2a2;fill-opacity:1;fill-rule:nonzero;stroke:none"
             d="m 0,0 c -0.275,0 -0.529,-0.077 -0.764,-0.23 -0.234,-0.155 -0.351,-0.392 -0.351,-0.715 v -19.053 c 0,-0.322 0.117,-0.561 0.351,-0.715 0.235,-0.153 0.489,-0.23 0.764,-0.23 0.291,0 0.554,0.077 0.788,0.23 0.233,0.154 0.352,0.393 0.352,0.715 v 19.053 c 0,0.323 -0.119,0.56 -0.352,0.715 C 0.554,-0.077 0.291,0 0,0" /></g><g
           transform="translate(776.1299,186.3682)"
           id="g298"><path
             id="path300"
             style="fill:#a1a2a2;fill-opacity:1;fill-rule:nonzero;stroke:none"
             d="m 0,0 c -0.404,-0.832 -1.091,-1.248 -2.06,-1.248 -0.969,0 -1.653,0.416 -2.048,1.248 -0.397,0.832 -0.594,2.057 -0.594,3.672 0,1.616 0.197,2.84 0.594,3.673 0.395,0.832 1.079,1.248 2.048,1.248 0.969,0 1.656,-0.416 2.06,-1.248 C 0.404,6.512 0.606,5.288 0.606,3.672 0.606,2.057 0.404,0.832 0,0 m 6.399,11.914 c -0.291,0 -0.553,-0.077 -0.788,-0.23 C 5.377,11.529 5.26,11.291 5.26,10.969 V 4.715 H 2.788 c -0.106,1.791 -0.474,3.213 -1.14,4.218 -0.792,1.195 -2.028,1.793 -3.708,1.793 -1.681,0 -2.913,-0.598 -3.697,-1.793 -0.784,-1.197 -1.176,-2.95 -1.176,-5.261 0,-2.311 0.392,-4.064 1.176,-5.26 0.784,-1.196 2.016,-1.794 3.697,-1.794 1.68,0 2.916,0.598 3.708,1.794 0.669,1.01 1.037,2.44 1.142,4.242 h 2.47 v -9.477 c 0,-0.323 0.117,-0.562 0.351,-0.715 0.235,-0.153 0.497,-0.231 0.788,-0.231 0.275,0 0.53,0.078 0.764,0.231 0.234,0.153 0.352,0.392 0.352,0.715 v 17.792 c 0,0.322 -0.118,0.56 -0.352,0.715 -0.234,0.153 -0.489,0.23 -0.764,0.23" /></g><g
           transform="translate(799.2422,184.1865)"
           id="g302"><path
             id="path304"
             style="fill:#a1a2a2;fill-opacity:1;fill-rule:nonzero;stroke:none"
             d="m 0,0 c 0.201,-0.153 0.439,-0.23 0.715,-0.23 0.274,0 0.513,0.077 0.715,0.23 0.202,0.153 0.311,0.424 0.327,0.812 l 0.291,11.441 c 0.015,0.42 -0.101,0.719 -0.352,0.897 -0.251,0.177 -0.578,0.267 -0.981,0.267 -0.404,0 -0.728,-0.09 -0.97,-0.267 -0.242,-0.178 -0.363,-0.477 -0.363,-0.897 L -0.304,0.812 C -0.304,0.424 -0.202,0.153 0,0" /></g><g
           transform="translate(801.0967,181.5205)"
           id="g306"><path
             id="path308"
             style="fill:#a1a2a2;fill-opacity:1;fill-rule:nonzero;stroke:none"
             d="m 0,0 c -0.308,0.299 -0.687,0.448 -1.14,0.448 -0.452,0 -0.832,-0.149 -1.139,-0.448 -0.307,-0.3 -0.46,-0.675 -0.46,-1.127 0,-0.453 0.153,-0.832 0.46,-1.14 0.307,-0.306 0.687,-0.461 1.139,-0.461 0.453,0 0.832,0.155 1.14,0.461 0.307,0.308 0.46,0.687 0.46,1.14 C 0.46,-0.675 0.307,-0.3 0,0" /></g><g
           transform="translate(721.0501,791.1246)"
           id="g310"><path
             id="path312"
             style="fill:#f29243;fill-opacity:1;fill-rule:nonzero;stroke:none"
             d="M 0,0 C 1.543,1.526 1.543,4.024 0,5.551 L -11.701,17.122 0,28.694 c 1.543,1.527 1.543,4.025 0,5.551 -1.543,1.526 -4.069,1.526 -5.612,0 L -17.313,22.673 -29.014,34.245 c -1.544,1.526 -4.069,1.526 -5.613,0 -1.543,-1.526 -1.543,-4.024 0,-5.551 L -22.926,17.122 -34.627,5.551 c -1.543,-1.527 -1.543,-4.025 0,-5.551 1.544,-1.526 4.069,-1.526 5.613,0 L -17.313,11.572 -5.612,0 C -4.069,-1.526 -1.543,-1.526 0,0" /></g><g
           transform="translate(721.0501,791.1246)"
           id="g314"><path
             id="path316"
             style="fill:none;stroke:#f29243;stroke-width:3.05999994;stroke-linecap:round;stroke-linejoin:round;stroke-miterlimit:10;stroke-dasharray:none;stroke-opacity:1"
             d="M 0,0 C 1.543,1.526 1.543,4.024 0,5.551 L -11.701,17.122 0,28.694 c 1.543,1.527 1.543,4.025 0,5.551 -1.543,1.526 -4.069,1.526 -5.612,0 L -17.313,22.673 -29.014,34.245 c -1.544,1.526 -4.069,1.526 -5.613,0 -1.543,-1.526 -1.543,-4.024 0,-5.551 L -22.926,17.122 -34.627,5.551 c -1.543,-1.527 -1.543,-4.025 0,-5.551 1.544,-1.526 4.069,-1.526 5.613,0 L -17.313,11.572 -5.612,0 C -4.069,-1.526 -1.543,-1.526 0,0 Z" /></g><g
           transform="translate(747.6271,737.9974)"
           id="g318"><path
             id="path320"
             style="fill:#f29243;fill-opacity:1;fill-rule:nonzero;stroke:none"
             d="m 0,0 h -11.349 v 11.224 c 0,1.48 -1.225,2.692 -2.722,2.692 -1.497,0 -2.721,-1.212 -2.721,-2.692 V 0 h -11.349 c -1.497,0 -2.722,-1.211 -2.722,-2.692 0,-1.48 1.225,-2.692 2.722,-2.692 h 11.349 v -11.223 c 0,-1.481 1.224,-2.692 2.721,-2.692 1.497,0 2.722,1.211 2.722,2.692 V -5.384 H 0 c 1.497,0 2.722,1.212 2.722,2.692 C 2.722,-1.211 1.497,0 0,0" /></g><g
           transform="translate(747.6271,737.9974)"
           id="g322"><path
             id="path324"
             style="fill:none;stroke:#f29243;stroke-width:3.05999994;stroke-linecap:round;stroke-linejoin:round;stroke-miterlimit:10;stroke-dasharray:none;stroke-opacity:1"
             d="m 0,0 h -11.349 v 11.224 c 0,1.48 -1.225,2.692 -2.722,2.692 -1.497,0 -2.721,-1.212 -2.721,-2.692 V 0 h -11.349 c -1.497,0 -2.722,-1.211 -2.722,-2.692 0,-1.48 1.225,-2.692 2.722,-2.692 h 11.349 v -11.223 c 0,-1.481 1.224,-2.692 2.721,-2.692 1.497,0 2.722,1.211 2.722,2.692 V -5.384 H 0 c 1.497,0 2.722,1.212 2.722,2.692 C 2.722,-1.211 1.497,0 0,0 Z" /></g><g
           transform="translate(657.4918,673.2809)"
           id="g326"><path
             id="path328"
             style="fill:#f29243;fill-opacity:1;fill-rule:nonzero;stroke:none"
             d="m 0,0 c 17.577,-14.852 26.248,-39.659 21.461,-64.617 -4.544,-23.688 -20.372,-43.45 -41.31,-51.574 l -1.466,-0.89 -0.279,-1.461 c -2.39,-12.473 -10.456,-22.947 -21.573,-28.016 l -1.134,-0.518 -12.344,-42.977 c -3.365,-11.712 -13.898,-19.581 -26.215,-19.581 -11.938,0.003 -22.375,7.572 -25.966,18.835 l -8.238,25.813 -2.518,-0.672 c -6.214,-1.663 -12.671,-2.506 -19.191,-2.506 -23.45,0 -45.613,11.344 -57.837,29.603 l -1.089,1.629 -1.904,-0.52 c -5.894,-1.61 -11.97,-2.427 -18.062,-2.427 -23.286,0 -44.931,11.809 -57.899,31.586 l -1.092,1.227 h -1.476 c -37.367,0 -67.765,30.948 -67.765,68.99 0,30.305 19.982,57.492 48.59,66.112 l 1.583,0.478 0.3,1.61 c 3.676,19.744 21.637,34.074 42.705,34.074 3.051,0 6.095,-0.305 9.046,-0.904 l 1.763,-0.357 1.023,1.466 c 10.745,15.401 28.714,24.597 48.069,24.597 10.791,0 21.363,-2.897 30.571,-8.373 l 1.54,-0.917 1.456,1.04 c 10.357,7.412 22.624,11.331 35.47,11.331 21.316,0 40.612,-10.685 51.623,-28.582 l 0.704,-1.142 1.344,-0.137 c 5.204,-0.524 10.231,-1.682 15.019,-3.363 l 1.21,1.197 3,2.966 c -5.495,2.158 -11.3,3.681 -17.341,4.406 -12.113,18.832 -32.783,30.034 -55.559,30.034 -13.401,0 -26.226,-3.914 -37.202,-11.339 -9.686,5.408 -20.651,8.258 -31.835,8.258 -20.537,0 -39.661,-9.498 -51.517,-25.493 -2.756,0.46 -5.569,0.691 -8.384,0.691 -23.124,0 -42.928,-15.415 -47.727,-36.882 -30.048,-9.807 -50.89,-38.672 -50.89,-70.771 0,-40.511 32.05,-73.563 72.019,-74.354 14.057,-20.584 36.995,-32.828 61.652,-32.828 5.933,0 11.852,0.717 17.623,2.132 13.42,-18.811 36.703,-30.417 61.269,-30.417 6.119,0 12.188,0.691 18.078,2.059 l 6.68,-20.933 c 4.31,-13.514 16.829,-22.593 31.155,-22.596 h 0.002 c 14.772,0 27.411,9.44 31.445,23.489 l 11.667,40.624 c 11.696,5.768 20.247,16.81 23.259,30.255 21.979,9.106 38.503,30.052 43.292,55.025 5.123,26.713 -4.143,53.31 -22.955,69.428 L 3.421,3.383 Z" /></g><g
           transform="translate(560.3157,633.8465)"
           id="g330"><path
             id="path332"
             style="fill:#fad2b1;fill-opacity:1;fill-rule:nonzero;stroke:none"
             d="m 0,0 c -15.758,15.584 -15.758,41.086 0,56.671 l 31.108,30.764 c -3.433,0.715 -6.988,1.104 -10.636,1.104 -1.114,0 -2.203,-0.096 -3.299,-0.165 -6.808,17.362 -23.817,29.692 -43.778,29.692 -14.581,0 -27.61,-6.57 -36.228,-16.879 -8.061,8.449 -19.754,13.799 -32.81,13.799 -20.225,0 -37.222,-12.782 -42.378,-30.172 -4.92,3.362 -10.963,5.37 -17.522,5.37 -16.444,0 -29.774,-12.475 -29.774,-27.864 0,-1.922 0.208,-3.799 0.604,-5.611 -28.155,-1.987 -50.41,-25.974 -50.41,-55.35 0,-30.676 24.251,-55.544 54.167,-55.544 3.24,0 6.395,0.345 9.478,0.903 8.819,-19.873 28.306,-33.716 50.988,-33.716 9.709,0 18.839,2.536 26.801,6.991 6.25,-20.317 27.173,-35.275 52.092,-35.275 11.145,0 21.498,2.993 30.102,8.113 l 12.81,-40.15 c 4.075,-12.769 22.437,-12.506 26.136,0.374 l 14.44,50.273 c 9.655,0.981 18.203,8.963 20.333,20.07 0.64,3.339 0.633,6.629 0.086,9.723 20.527,2.96 38.407,20.419 42.968,44.201 4.033,21.026 -3.47,41.186 -17.706,52.615 L 57.302,0 C 41.544,-15.584 15.758,-15.584 0,0" /></g><g
           transform="translate(609.9697,724.4753)"
           id="g334"><path
             id="path336"
             style="fill:#fad2b1;fill-opacity:1;fill-rule:nonzero;stroke:none"
             d="m 0,0 35.601,35.211 c 5.566,5.505 13.01,8.536 20.959,8.536 7.949,0 15.393,-3.031 20.96,-8.536 11.555,-11.431 11.555,-30.029 0,-41.459 L 41.916,-41.457 Z" /></g><g
           transform="translate(588.9673,632.983)"
           id="g338"><path
             id="path340"
             style="fill:#f29243;fill-opacity:1;fill-rule:nonzero;stroke:none"
             d="m 0,0 c -7.949,0 -15.393,3.031 -20.959,8.536 -11.556,11.431 -11.556,30.029 0,41.46 L 14.644,85.204 56.56,43.747 20.959,8.536 C 15.393,3.034 7.949,0 0,0" /></g></g></g></g></svg>