<svg width="36" height="29" viewBox="0 0 36 29" fill="none" xmlns="http://www.w3.org/2000/svg">
<g id="Group 8731">
<circle id="Ellipse 46" cx="13.04" cy="7.5" r="7.5" fill="#C6C6C6"/>
<circle id="Ellipse 47" cx="22.04" cy="7.5" r="7.5" fill="#E8E8E8"/>
<path id="Ellipse 45" d="M24.5173 26.1081C25.3465 25.9353 25.8404 25.0676 25.4283 24.3275C24.52 22.696 23.0889 21.2623 21.2583 20.1698C18.9006 18.7627 16.0118 18 13.04 18C10.0682 18 7.17942 18.7627 4.82172 20.1698C2.99107 21.2623 1.56003 22.696 0.651661 24.3275C0.239615 25.0675 0.733468 25.9353 1.56269 26.1081C9.1329 27.6857 16.9471 27.6857 24.5173 26.1081Z" fill="#C6C6C6"/>
<path id="Ellipse 48" d="M33.5173 26.1081C34.3465 25.9353 34.8404 25.0676 34.4283 24.3275C33.52 22.696 32.0889 21.2623 30.2583 20.1698C27.9006 18.7627 25.0118 18 22.04 18C19.0682 18 16.1794 18.7627 13.8217 20.1698C11.9911 21.2623 10.56 22.696 9.65166 24.3275C9.23961 25.0675 9.73347 25.9353 10.5627 26.1081C18.1329 27.6857 25.9471 27.6857 33.5173 26.1081Z" fill="#E8E8E8"/>
</g>
</svg>
