<svg width="29" height="26" viewBox="0 0 29 26" fill="none" xmlns="http://www.w3.org/2000/svg">
<g id="Group 26092493">
<g id="Icon">
<path d="M4.57892 19.9707H19.405C20.0929 19.9707 20.7617 19.7544 21.3113 19.3526L25.1493 16.5525C26.1072 15.8541 27.4479 15.9468 28.2946 16.7704C29.2351 17.6852 29.2351 19.1672 28.2946 20.0805L25.0015 23.2839C24.1151 24.1462 22.9841 24.7349 21.7545 24.9744L17.1 25.88C16.1771 26.0592 15.2255 26.0376 14.3121 25.8151L10.1024 24.7921C9.59879 24.6685 9.08251 24.6067 8.56305 24.6067H4.57892" fill="#E8E8E8"/>
<path d="M4.57892 19.9707L18.0579 19.9706C19.3875 19.9706 20.4646 18.9229 20.4646 17.6295V17.1613C20.4646 16.0873 19.7132 15.1508 18.6425 14.8912L15.0015 14.0058C14.409 13.8621 13.8021 13.7894 13.1921 13.7894C11.7195 13.7894 9.05391 15.0087 9.05391 15.0087L4.57892 16.88" fill="#E8E8E8"/>
</g>
<rect id="Rectangle 6547" y="15.3158" width="4.57895" height="10.6842" rx="1.52632" fill="#C6C6C6"/>
<path id="Icon_2" fill-rule="evenodd" clip-rule="evenodd" d="M21.4378 2.31833C20.5269 0.412182 18.4267 -0.597648 16.3843 0.377039C14.3419 1.35173 13.4717 3.66321 14.3268 5.69236C14.8553 6.94643 16.3695 9.38174 17.4491 11.0592C17.848 11.679 18.0475 11.9889 18.3388 12.1702C18.5887 12.3257 18.9015 12.4095 19.1957 12.3998C19.5386 12.3885 19.8663 12.2198 20.5217 11.8825C22.2954 10.9696 24.8244 9.61763 25.9091 8.79582C27.6642 7.46608 28.099 5.02193 26.785 3.16389C25.4709 1.30585 23.1798 1.12302 21.4378 2.31833Z" fill="#C6C6C6"/>
</g>
</svg>
