<svg width="36" height="36" viewBox="0 0 36 36" fill="none" xmlns="http://www.w3.org/2000/svg">
<g id="Component 40">
<path id="Subtract" fill-rule="evenodd" clip-rule="evenodd" d="M6.96683 13.4892C6.5166 14.4681 6.5166 15.5817 6.5166 17.809V24.765C6.5166 27.8582 6.5166 29.4048 7.47754 30.3657C8.43847 31.3267 9.98507 31.3267 13.0783 31.3267H14.0625V25.4214C14.0625 24.3342 14.9438 23.4529 16.031 23.4529H19.968C21.0552 23.4529 21.9365 24.3342 21.9365 25.4214V31.3267H22.9208C26.014 31.3267 27.5606 31.3267 28.5215 30.3657C29.4824 29.4048 29.4824 27.8582 29.4824 24.765V17.809C29.4824 15.5817 29.4824 14.4681 29.0322 13.4892C28.582 12.5103 27.7364 11.7855 26.0454 10.336L24.4049 8.92994C21.3483 6.30998 19.82 5 17.9995 5C16.179 5 14.6507 6.30998 11.5941 8.92993L11.5941 8.92994L9.95369 10.336C8.26261 11.7855 7.41706 12.5103 6.96683 13.4892Z" fill="#FF9432"/>
</g>
</svg>
