<svg width="23" height="22" viewBox="0 0 23 22" fill="none" xmlns="http://www.w3.org/2000/svg">
<g id="Group 316">
<path id="Vector" d="M11.5773 0.652588C5.50396 0.652588 0.606079 4.66701 0.606079 9.54057C0.606079 12.704 2.6436 15.4739 5.69988 17.0556L4.66545 21.0139C4.64594 21.0733 4.64294 21.1369 4.65678 21.1979C4.67062 21.2589 4.70076 21.3147 4.74381 21.3591C4.80659 21.4158 4.88737 21.4472 4.97107 21.4474C5.04048 21.4417 5.10633 21.4136 5.15915 21.3672L9.61035 18.2921C10.2674 18.385 10.9297 18.4333 11.593 18.4366C17.6586 18.4366 22.5643 14.4222 22.5643 9.54057C22.5643 4.65898 17.6429 0.652588 11.5773 0.652588Z" fill="#392020"/>
<path id="Vector_2" d="M4.44566 8.13548H3.24665C3.09804 8.13989 2.95127 8.1009 2.82348 8.02306C2.76674 7.98664 2.71796 7.93857 2.6802 7.88193C2.64244 7.82528 2.61651 7.76124 2.60405 7.69385C2.60024 7.65111 2.60024 7.60819 2.60405 7.56545C2.60033 7.4855 2.61548 7.40575 2.64822 7.33307C2.68096 7.26039 2.73032 7.1969 2.79213 7.14793C2.92875 7.04656 3.09365 6.99301 3.26232 6.99533H6.87501C7.0248 6.98994 7.17257 7.03202 7.29818 7.11579C7.35626 7.1506 7.40607 7.19823 7.44401 7.25516C7.48196 7.31208 7.5071 7.37691 7.51761 7.445C7.52143 7.48505 7.52143 7.52541 7.51761 7.56545C7.5213 7.64656 7.50619 7.7274 7.4735 7.80136C7.4408 7.87533 7.39147 7.94025 7.32953 7.99091C7.19624 8.09216 7.03293 8.14325 6.86717 8.13548H5.70735V12.3587C5.71206 12.4487 5.69847 12.5386 5.66744 12.6229C5.63642 12.7072 5.58863 12.7841 5.52711 12.8485C5.46812 12.91 5.3972 12.9583 5.31892 12.9901C5.24064 13.0219 5.15673 13.0365 5.07258 13.0331C4.92541 13.0374 4.78135 12.9892 4.66508 12.8967C4.55438 12.8063 4.47925 12.6779 4.45349 12.5353C4.44575 12.4767 4.44575 12.4173 4.45349 12.3587L4.44566 8.13548Z" fill="#FEE500"/>
<path id="Vector_3" d="M7.8635 7.30846C7.89796 7.17634 7.97891 7.06193 8.09076 6.98728C8.20993 6.91808 8.34574 6.88469 8.48259 6.89094H8.78038C8.92559 6.88561 9.06939 6.92175 9.19572 6.99532C9.32958 7.08755 9.4247 7.22797 9.46217 7.38873L11.0295 11.9251C11.0701 12.0434 11.1041 12.1641 11.1314 12.2865C11.134 12.3373 11.134 12.3881 11.1314 12.439C11.134 12.5172 11.12 12.5951 11.0902 12.6672C11.0604 12.7393 11.0156 12.8039 10.959 12.8565C10.9041 12.9141 10.8381 12.9596 10.7653 12.99C10.6925 13.0204 10.6144 13.035 10.5358 13.0331C10.4149 13.0454 10.2935 13.0157 10.1912 12.9487C10.0888 12.8817 10.0114 12.7813 9.97154 12.6638L9.64241 11.6762H7.58138L7.25224 12.6638C7.21331 12.7837 7.13502 12.886 7.0307 12.9533C6.92638 13.0207 6.8025 13.0488 6.68016 13.0331C6.54765 13.0366 6.41785 12.9942 6.31184 12.9126C6.20856 12.8285 6.13888 12.7086 6.11593 12.5755C6.11177 12.5301 6.11177 12.4844 6.11593 12.439C6.10247 12.3593 6.10247 12.2778 6.11593 12.1981C6.11593 12.1098 6.17078 12.0134 6.20213 11.9251L7.8635 7.30846ZM8.64716 8.3603L7.90268 10.769H9.3838L8.64716 8.3603Z" fill="#FEE500"/>
<path id="Vector_4" d="M11.3109 7.56555C11.3029 7.38537 11.3649 7.2093 11.4833 7.0758C11.5434 7.01361 11.6157 6.965 11.6953 6.93319C11.775 6.90139 11.8602 6.887 11.9456 6.89105C12.0924 6.88929 12.2357 6.93731 12.3531 7.02758C12.462 7.12176 12.5343 7.25276 12.5569 7.39688C12.5646 7.4528 12.5646 7.50963 12.5569 7.56555V11.7888H14.712C14.8613 11.7868 15.0082 11.8285 15.1351 11.9091C15.1922 11.9452 15.2412 11.9932 15.279 12.0499C15.3168 12.1066 15.3425 12.1708 15.3546 12.2383C15.3546 12.2383 15.3546 12.3187 15.3546 12.3588C15.3583 12.4388 15.3431 12.5184 15.3104 12.5911C15.2776 12.6638 15.2283 12.7273 15.1665 12.7763C15.0299 12.8777 14.865 12.9311 14.6963 12.9288H12.0475C11.8788 12.9399 11.7111 12.895 11.5695 12.8004C11.4428 12.7034 11.3583 12.5592 11.3344 12.399C11.3286 12.3108 11.3286 12.2222 11.3344 12.134L11.3109 7.56555Z" fill="#FEE500"/>
<path id="Vector_5" d="M15.4958 7.56559C15.4911 7.38593 15.5527 7.21107 15.6682 7.07584C15.7857 6.96649 15.9363 6.90192 16.0948 6.89315C16.2533 6.88437 16.4098 6.93188 16.5381 7.02762C16.6493 7.12097 16.7243 7.25191 16.7497 7.39692C16.7535 7.45305 16.7535 7.50946 16.7497 7.56559V9.53264L18.7323 7.18816C18.8087 7.10817 18.8899 7.03317 18.9753 6.96342C19.0558 6.91431 19.1481 6.88921 19.2417 6.89109C19.3787 6.89032 19.5126 6.93235 19.6257 7.01154C19.679 7.0483 19.7245 7.09573 19.7595 7.15091C19.7945 7.20609 19.8183 7.26791 19.8295 7.33272C19.8326 7.34861 19.8326 7.36505 19.8295 7.38094C19.8257 7.39947 19.8257 7.41857 19.8295 7.4371C19.8292 7.52159 19.8076 7.6046 19.7668 7.67801C19.7252 7.75573 19.6752 7.82836 19.6179 7.89471L18.317 9.35603L19.8843 11.845V11.9252C19.9657 12.0403 20.0291 12.1677 20.0724 12.3027V12.3428C20.0815 12.4358 20.0684 12.5297 20.0343 12.6164C20.0001 12.7031 19.946 12.78 19.8765 12.8406C19.7458 12.9418 19.5858 12.9955 19.422 12.9932C19.3131 12.9977 19.205 12.9728 19.1085 12.9208C19.0041 12.8491 18.9181 12.7527 18.8577 12.6398L17.4001 10.2312L16.7027 10.9779V12.3187C16.7074 12.4983 16.6458 12.6732 16.5303 12.8084C16.4683 12.8704 16.3947 12.9189 16.3138 12.9506C16.2329 12.9824 16.1466 12.9969 16.0601 12.9932C15.9155 12.9963 15.7743 12.948 15.6604 12.8566C15.5497 12.7662 15.4746 12.638 15.4488 12.4954C15.4411 12.4368 15.4411 12.3773 15.4488 12.3187L15.4958 7.56559Z" fill="#FEE500"/>
</g>
</svg>
