<svg width="36" height="36" viewBox="0 0 36 36" fill="none" xmlns="http://www.w3.org/2000/svg">
<path d="M9.90636 17.8055C7.19665 15.0481 7.23533 10.6161 9.99275 7.90638C12.7502 5.19667 17.1822 5.23535 19.8919 7.99277L24.0973 12.2723L14.1118 22.085L9.90636 17.8055Z" fill="#FFE0C2"/>
<path d="M19.0182 27.0778C21.7279 29.8352 26.1599 29.8739 28.9173 27.1642C31.6747 24.4545 31.7134 20.0225 29.0037 17.2651L24.0973 12.2723L14.1118 22.0851L19.0182 27.0778Z" fill="#FF9432"/>
<path fill-rule="evenodd" clip-rule="evenodd" d="M22.0703 24.1122H5.45496V28.9583C5.45496 28.9583 5.45496 28.9583 5.45496 28.9583C5.45497 30.1054 9.17444 31.0353 13.7626 31.0353C18.3509 31.0353 22.0703 30.1054 22.0703 28.9583V24.1122Z" fill="#FFDFC2"/>
<ellipse cx="13.7626" cy="24.1122" rx="8.30769" ry="2.07692" fill="#FF9432"/>
<path fill-rule="evenodd" clip-rule="evenodd" d="M10.4008 26.0121C11.4286 26.1259 12.5661 26.1891 13.7627 26.1891C18.3509 26.1891 22.0703 25.2593 22.0703 24.1122C22.0703 23.1916 19.6745 22.4109 16.3566 22.1385L10.4008 26.0121Z" fill="#D77114"/>
</svg>
